<svg width="400" height="400" viewBox="0 0 400 400" fill="none" xmlns="http://www.w3.org/2000/svg">
<g clip-path="url(#clip0_202_2)">
<rect width="400" height="400" fill="white"/>
<mask id="path-3-inside-1_202_2" fill="white">
<path fill-rule="evenodd" clip-rule="evenodd" d="M103.833 13.3238L18.9807 98.1766L117.976 197.172L16.1522 298.995L101.005 383.848L202.828 282.024L301.823 381.019L386.676 296.167L287.681 197.172L383.848 101.005L298.995 16.1522L202.828 112.319L103.833 13.3238Z"/>
</mask>
<path fill-rule="evenodd" clip-rule="evenodd" d="M103.833 13.3238L18.9807 98.1766L117.976 197.172L16.1522 298.995L101.005 383.848L202.828 282.024L301.823 381.019L386.676 296.167L287.681 197.172L383.848 101.005L298.995 16.1522L202.828 112.319L103.833 13.3238Z" fill="#6F00B4"/>
<path d="M18.9807 98.1766L11.9096 91.1056L4.83853 98.1766L11.9096 105.248L18.9807 98.1766ZM103.833 13.3238L110.905 6.25275L103.833 -0.818322L96.7624 6.25275L103.833 13.3238ZM117.976 197.172L125.047 204.243L132.118 197.172L125.047 190.101L117.976 197.172ZM16.1522 298.995L9.08117 291.924L2.0101 298.995L9.08117 306.066L16.1522 298.995ZM101.005 383.848L93.934 390.919L101.005 397.99L108.076 390.919L101.005 383.848ZM202.828 282.024L209.899 274.953L202.828 267.882L195.757 274.953L202.828 282.024ZM301.823 381.019L294.752 388.09L301.823 395.161L308.894 388.09L301.823 381.019ZM386.676 296.167L393.747 303.238L400.818 296.167L393.747 289.095L386.676 296.167ZM287.681 197.172L280.61 190.101L273.539 197.172L280.61 204.243L287.681 197.172ZM383.848 101.005L390.919 108.076L397.99 101.005L390.919 93.934L383.848 101.005ZM298.995 16.1522L306.066 9.08117L298.995 2.0101L291.924 9.08117L298.995 16.1522ZM202.828 112.319L195.757 119.39L202.828 126.461L209.899 119.39L202.828 112.319ZM26.0517 105.248L110.905 20.3949L96.7624 6.25275L11.9096 91.1056L26.0517 105.248ZM125.047 190.101L26.0517 91.1056L11.9096 105.248L110.905 204.243L125.047 190.101ZM23.2233 306.066L125.047 204.243L110.905 190.101L9.08117 291.924L23.2233 306.066ZM108.076 376.777L23.2233 291.924L9.08117 306.066L93.934 390.919L108.076 376.777ZM195.757 274.953L93.934 376.777L108.076 390.919L209.899 289.095L195.757 274.953ZM308.894 373.948L209.899 274.953L195.757 289.095L294.752 388.09L308.894 373.948ZM379.605 289.095L294.752 373.948L308.894 388.09L393.747 303.238L379.605 289.095ZM280.61 204.243L379.605 303.238L393.747 289.095L294.752 190.101L280.61 204.243ZM376.777 93.934L280.61 190.101L294.752 204.243L390.919 108.076L376.777 93.934ZM291.924 23.2233L376.777 108.076L390.919 93.934L306.066 9.08117L291.924 23.2233ZM209.899 119.39L306.066 23.2233L291.924 9.08117L195.757 105.248L209.899 119.39ZM96.7624 20.3949L195.757 119.39L209.899 105.248L110.905 6.25275L96.7624 20.3949Z" fill="#6F00B4" mask="url(#path-3-inside-1_202_2)"/>
</g>
<rect x="0.5" y="0.5" width="399" height="399" stroke="black"/>
<defs>
<clipPath id="clip0_202_2">
<rect width="400" height="400" fill="white"/>
</clipPath>
</defs>
</svg>
