<svg width="371" height="371" viewBox="0 0 371 371" fill="none" xmlns="http://www.w3.org/2000/svg">
<mask id="path-1-inside-1_202_5" fill="white">
<path fill-rule="evenodd" clip-rule="evenodd" d="M87.8335 0.323813L2.98066 85.1766L101.976 184.172L0.152235 285.995L85.005 370.848L186.828 269.024L285.823 368.019L370.676 283.167L271.681 184.172L367.848 88.0051L282.995 3.15224L186.828 99.3188L87.8335 0.323813Z"/>
</mask>
<path d="M2.98066 85.1766L-4.09041 78.1056L-11.1615 85.1766L-4.09041 92.2477L2.98066 85.1766ZM87.8335 0.323813L94.9045 -6.74725L87.8335 -13.8183L80.7624 -6.74725L87.8335 0.323813ZM101.976 184.172L109.047 191.243L116.118 184.172L109.047 177.101L101.976 184.172ZM0.152235 285.995L-6.91883 278.924L-13.9899 285.995L-6.91883 293.066L0.152235 285.995ZM85.005 370.848L77.934 377.919L85.005 384.99L92.0761 377.919L85.005 370.848ZM186.828 269.024L193.899 261.953L186.828 254.882L179.757 261.953L186.828 269.024ZM285.823 368.019L278.752 375.09L285.823 382.161L292.894 375.09L285.823 368.019ZM370.676 283.167L377.747 290.238L384.818 283.167L377.747 276.095L370.676 283.167ZM271.681 184.172L264.61 177.101L257.539 184.172L264.61 191.243L271.681 184.172ZM367.848 88.0051L374.919 95.0761L381.99 88.0051L374.919 80.934L367.848 88.0051ZM282.995 3.15224L290.066 -3.91883L282.995 -10.9899L275.924 -3.91883L282.995 3.15224ZM186.828 99.3188L179.757 106.39L186.828 113.461L193.899 106.39L186.828 99.3188ZM10.0517 92.2477L94.9045 7.39488L80.7624 -6.74725L-4.09041 78.1056L10.0517 92.2477ZM109.047 177.101L10.0517 78.1056L-4.09041 92.2477L94.9045 191.243L109.047 177.101ZM7.2233 293.066L109.047 191.243L94.9045 177.101L-6.91883 278.924L7.2233 293.066ZM92.0761 363.777L7.2233 278.924L-6.91883 293.066L77.934 377.919L92.0761 363.777ZM179.757 261.953L77.934 363.777L92.0761 377.919L193.899 276.095L179.757 261.953ZM292.894 360.948L193.899 261.953L179.757 276.095L278.752 375.09L292.894 360.948ZM363.605 276.095L278.752 360.948L292.894 375.09L377.747 290.238L363.605 276.095ZM264.61 191.243L363.605 290.238L377.747 276.095L278.752 177.101L264.61 191.243ZM360.777 80.934L264.61 177.101L278.752 191.243L374.919 95.0761L360.777 80.934ZM275.924 10.2233L360.777 95.0761L374.919 80.934L290.066 -3.91883L275.924 10.2233ZM193.899 106.39L290.066 10.2233L275.924 -3.91883L179.757 92.2477L193.899 106.39ZM80.7624 7.39488L179.757 106.39L193.899 92.2477L94.9045 -6.74725L80.7624 7.39488Z" fill="#6F00B4" mask="url(#path-1-inside-1_202_5)"/>
</svg>
