<svg width="432" height="432" viewBox="0 0 432 432" fill="none" xmlns="http://www.w3.org/2000/svg">
<g clip-path="url(#clip0_231_2)">
<path d="M137.373 255.452C131.896 252.553 126.564 250.552 122.197 247.317C115.731 242.526 113.872 245.956 112.263 251.377C110.053 258.822 109.038 266.432 108.797 274.145C108.575 281.276 108.764 288.429 108.266 295.539C108.011 299.18 108.378 300.905 112.689 301.868C117.746 302.998 118.609 308.482 120.671 312.389C128.014 326.301 134.774 340.512 142.342 354.304C163.114 392.16 196.906 411.354 239.393 418.881C283.292 426.657 319.99 411.728 353.974 386.877C362.958 380.307 367.573 371.766 367.676 360.494C367.815 345.089 368.592 329.707 367.578 314.288C366.674 300.548 364.543 287.132 359.754 274.113C355.648 262.955 357.254 257.935 367.084 251.568C376.516 245.458 377.847 236.658 376.912 226.783C375.974 216.884 369.798 208.796 367.187 199.5C366.65 197.588 365.823 197.461 364.186 197.737C356.314 199.065 354.493 194.079 352.523 188.086C350.039 180.526 346.42 173.309 343.135 166.01C341.007 161.282 339.214 156.504 338.985 151.295C338.816 147.443 341.083 145.309 344.695 145.019C348.097 144.746 350.266 146.84 350.503 150.145C351.206 159.909 356.894 167.643 361.556 177.391C365.76 165.887 367.471 154.937 372.439 145.087C374.355 141.287 375.496 136.07 381.569 138.724C387.6 141.359 384.355 145.751 382.83 149.651C377.927 162.183 374.01 175 371.526 188.195C371.205 189.897 368.989 192.521 371.584 193.508C383.466 198.03 383.882 209.475 386.652 218.566C391.742 235.274 389.195 250.94 372.668 261.482C369.111 263.751 369.035 266.413 370.233 269.534C381.293 298.367 379.567 328.385 379.439 358.337C379.368 375.195 372.226 387.806 358.716 397.749C310.472 433.254 258.172 441.949 201.42 420.105C167.995 407.24 144.134 384.307 128.493 352.989C121.756 339.499 114.689 326.163 107.594 312.412C99.9802 322.104 92.9901 322.197 84.6561 312.469C66.6599 291.462 55.7516 267.053 49.9256 240.475C45.5511 220.518 44.7885 200.368 47.8599 180.129C48.5011 175.903 48.3696 170.688 54.8618 171.586C61.6204 172.52 59.5362 178.078 58.995 181.891C53.3488 221.667 62.3318 258.281 83.734 292.285C86.7595 297.092 89.844 301.886 94.8133 306.287C97.6857 298.043 97.2546 290.153 97.3841 282.325C97.6243 267.798 97.1595 253.124 105.25 240.003C106.405 238.131 106.233 236.985 104.553 235.737C98.2989 231.089 93.2626 224.886 85.7581 221.836C81.7857 220.222 79.0559 217.786 81.3683 213.35C83.489 209.281 87.1933 210.295 90.5529 211.609C98.6436 214.775 104.418 221.029 110.949 226.284C119.466 233.139 128.551 239.097 139.925 243.567C139.925 240.8 140.153 239.152 139.891 237.582C135.42 210.86 150.276 191.287 165.511 171.836C167.702 169.039 170.384 167.257 173.694 169.557C177.093 171.919 177.246 175.046 174.728 178.481C169.283 185.908 164.233 193.614 158.638 200.929C153.681 207.411 151.482 214.425 151.723 222.476C151.969 230.744 151.706 239.03 151.51 247.305C151.255 258.099 148.1 260.029 137.373 255.452Z" fill="#0C0C0C"/>
<path d="M383.991 43.9224C388.763 45.6761 392.69 47.9551 390.258 52.7395C387.782 57.6086 383.484 55.4441 379.556 53.8138C351.252 42.0659 323.919 28.1087 294.637 18.6022C257.085 6.41078 219.004 10.012 181.197 17.2843C159.322 21.4919 137.653 26.972 118.523 38.8009C107.156 45.8298 97.9987 54.7022 92.838 66.9064C91.3893 70.3322 89.125 73.1371 84.8755 71.5394C80.4148 69.8623 80.2812 66.6434 82.089 62.5446C90.7305 42.9509 106.539 30.1706 126.301 22.2475C176.491 2.1249 228.621 -5.3725 282.608 4.00408C300.605 7.12992 317.175 14.7833 333.777 21.9398C350.364 29.09 366.87 36.4129 383.991 43.9224Z" fill="#0C0C0C"/>
<path d="M262.039 165.721C256.986 165.418 252.395 164.558 253.065 159.224C253.824 153.189 259.274 153.985 263.489 154.809C274.195 156.902 280.651 163.927 284.596 173.428C288.782 183.511 291.898 193.957 294.338 204.626C295.207 204.532 296.076 204.439 296.945 204.345C296.945 200.314 296.737 196.272 296.981 192.256C298.074 174.271 307.341 158.688 312.809 141.989C313.9 138.658 316.803 137.143 320.545 138.49C324.17 139.796 324.654 143.059 323.322 145.543C307.751 174.588 309.493 207.351 302.101 238.134C301.902 238.965 301.895 239.89 301.501 240.617C299.555 244.205 299.071 249.69 293.143 248.928C287.447 248.197 288.346 243.116 288.251 239.394C287.762 220.101 281.9 201.894 276.501 183.621C274.301 176.177 270.763 169.235 262.039 165.721Z" fill="#0D0D0D"/>
<path d="M389.333 94C391.294 95.2514 393.206 96.088 393.872 97.4659C405.172 120.842 419.303 143.011 427.662 167.636C433.47 184.747 432.1 202.435 431.116 219.968C430.673 227.875 424.108 231.007 416.162 227.691C407.489 224.071 402.884 217.425 401.999 208.538C401.36 202.118 401.983 195.552 397.004 190.037C395.077 187.902 396.171 185.078 398.813 183.458C401.795 181.629 404.5 182.462 406.912 184.643C412.432 189.633 412.327 196.351 413.032 202.786C413.547 207.491 413.347 212.41 419.332 215.899C421.943 193.347 419.649 172.329 408.959 152.306C400.611 136.668 392.824 120.759 384.858 104.938C382.462 100.18 381.034 95.5437 389.333 94Z" fill="#0B0B0B"/>
<path d="M215.966 234.115C209.714 220.676 199.673 209.306 193.052 196.031C187.136 184.169 181.445 172.281 178.014 159.499C177.511 157.627 177.248 155.678 177.057 153.747C176.666 149.808 178.265 147.041 182.609 146.8C186.614 146.577 188.024 149.185 188.546 152.648C191.542 172.524 202.323 189.23 212.177 206.304C212.37 206.638 213.073 206.699 214.103 207.116C215.427 193.432 214.228 179.753 216.926 166.34C218.702 157.508 221.281 148.929 224.535 140.538C225.969 136.839 227.972 132.65 233.165 134.417C238.463 136.22 237.293 140.149 235.437 144.147C224.359 168.013 226.123 193.428 226.006 218.608C225.993 221.411 225.989 224.217 226.092 227.017C226.343 233.852 223.516 236.562 215.966 234.115Z" fill="#0B0B0B"/>
<path d="M257.064 257C256.681 261.313 258.529 265.778 254.198 269.804C251.717 272.109 255.58 272.762 257.27 272.782C271.04 272.945 284.15 277.068 297.613 279.027C301.734 279.627 305.457 280.218 304.954 285.307C304.444 290.48 300.235 290.738 296.404 290.028C281.296 287.228 266.174 284.678 250.865 283.059C245.418 282.483 242.35 283.488 240.073 288.498C237.105 295.028 234.03 301.411 232.93 308.605C232.42 311.939 231.067 315.189 229.796 318.361C228.355 321.96 225.361 322.718 221.958 321.385C218.169 319.901 217.87 316.953 219.25 313.593C223.672 302.829 224.336 290.734 231.382 280.884C233.689 277.659 230.704 277.071 228.534 276.428C222.145 274.533 215.769 272.563 208.998 272.411C205.034 272.322 200.958 271.85 201 266.727C201.05 260.775 205.841 261.152 209.884 261.318C217.751 261.64 225.56 262.762 232.749 266.035C237.985 268.418 241.891 268.307 244.962 262.897C247.475 258.471 251.151 256.138 256.834 257.813C257.166 257.102 257.07 257.053 257.064 257Z" fill="#0C0C0C"/>
<path d="M29.6676 132.127C36.8253 122.481 41.8153 112.546 43.3127 101.163C43.8597 97.0053 45.324 93.5191 50.094 94.0545C55.9219 94.7086 55.2419 99.3087 54.557 103.359C51.272 122.786 41.4204 138.539 25.3332 152.667C31.8176 152.667 36.8297 152.762 41.8361 152.637C45.7229 152.54 48.0541 154.22 48.0744 158.062C48.0925 161.467 45.8121 163.277 42.4986 163.439C30.6464 164.018 18.7889 164.49 6.93289 164.991C3.63983 165.13 1.23462 163.613 0.244898 160.587C-0.715601 157.65 1.31425 155.669 3.466 154.139C12.6325 147.622 22.0534 141.42 29.6676 132.127Z" fill="#0C0C0C"/>
<path d="M233.954 394.294C233.954 385.126 231.146 371.032 235.166 362.657C238.202 356.332 241.459 346.157 247.476 341.991C260.224 333.166 271 330 286.512 330C299.95 330 308.437 332.246 320.7 338.037C330.461 342.646 339.353 351.362 344.172 360.999M233.954 398.886C240.435 398.346 247.284 394.957 253.472 393.146C265.859 389.52 278.048 384.531 290.657 381.729C300.16 379.617 309.624 374.411 317.191 368.525C323.726 363.443 335.9 358.703 344.172 358.703" stroke="black" stroke-width="10" stroke-linecap="round"/>
</g>
<defs>
<clipPath id="clip0_231_2">
<rect width="432" height="432" fill="white"/>
</clipPath>
</defs>
</svg>
