<svg width="241" height="241" viewBox="0 0 241 241" fill="none" xmlns="http://www.w3.org/2000/svg">
<path d="M120.387 225.419L44.9167 204.468L28.0808 15.5625H212.919L196.061 204.438L120.387 225.419Z" stroke="#ECECEC"/>
<mask id="path-2-inside-1_212_671" fill="white">
<path fill-rule="evenodd" clip-rule="evenodd" d="M120.5 75.5083L64.4298 75.5083H64.3545L63.8876 70.2741L62.8257 58.4726L62.2684 52.2292H120.5H120.583H178.867L178.31 58.4726L172.594 122.624H172.588L168.632 166.877L168.278 170.809L120.643 184.011V184.019L120.53 184.049L72.8498 170.809L69.5887 134.26H80.3584H92.9582L94.6151 152.824L120.538 159.828L120.56 159.822V159.813L146.52 152.809L149.233 122.624H120.5H94.9766H94.9013L94.4343 117.39L93.38 105.588L92.8227 99.3447L120.5 99.3447H151.303L153.427 75.5083L120.583 75.5083L120.5 75.5083Z"/>
</mask>
<path d="M64.4298 75.5083L64.4298 76.5083H64.4298L64.4298 75.5083ZM120.5 75.5083L120.5 74.5083L120.5 74.5083L120.5 75.5083ZM64.3545 75.5083L63.3585 75.5972L63.4398 76.5083H64.3545V75.5083ZM63.8876 70.2741L64.8836 70.1852L64.8836 70.1845L63.8876 70.2741ZM62.8257 58.4726L61.8296 58.5615L61.8297 58.5622L62.8257 58.4726ZM62.2684 52.2292V51.2292H61.1751L61.2723 52.3181L62.2684 52.2292ZM178.867 52.2292L179.863 52.3181L179.96 51.2292H178.867V52.2292ZM178.31 58.4726L177.314 58.3837L177.314 58.3839L178.31 58.4726ZM172.594 122.624V123.624H173.509L173.59 122.713L172.594 122.624ZM172.588 122.624V121.624H171.674L171.592 122.535L172.588 122.624ZM168.632 166.877L169.628 166.967L169.628 166.966L168.632 166.877ZM168.278 170.809L168.545 171.772L169.212 171.588L169.274 170.898L168.278 170.809ZM120.643 184.011L120.376 183.047L119.643 183.25V184.011H120.643ZM120.643 184.019L120.901 184.985L121.643 184.787V184.019H120.643ZM120.53 184.049L120.263 185.012L120.525 185.085L120.788 185.015L120.53 184.049ZM72.8498 170.809L71.8537 170.898L71.9153 171.587L72.5822 171.772L72.8498 170.809ZM69.5887 134.26V133.26H68.4955L68.5927 134.348L69.5887 134.26ZM92.9582 134.26L93.9543 134.171L93.8729 133.26H92.9582V134.26ZM94.6151 152.824L93.619 152.913L93.681 153.608L94.3542 153.789L94.6151 152.824ZM120.538 159.828L120.277 160.794L120.545 160.866L120.812 160.79L120.538 159.828ZM120.56 159.822L120.835 160.783L121.56 160.576V159.822H120.56ZM120.56 159.813L120.3 158.848L119.56 159.047V159.813H120.56ZM146.52 152.809L146.781 153.775L147.454 153.593L147.516 152.899L146.52 152.809ZM149.233 122.624L150.229 122.713L150.327 121.624H149.233V122.624ZM94.9013 122.624L93.9052 122.713L93.9865 123.624H94.9013V122.624ZM94.4343 117.39L95.4304 117.301L95.4304 117.301L94.4343 117.39ZM93.38 105.588L92.3839 105.677L92.3839 105.677L93.38 105.588ZM92.8227 99.3447L92.8227 98.3447L91.7294 98.3447L91.8266 99.4336L92.8227 99.3447ZM120.5 99.3447L120.5 98.3447L120.5 98.3447L120.5 99.3447ZM151.303 99.3447V100.345H152.218L152.299 99.4335L151.303 99.3447ZM153.427 75.5083L154.423 75.5971L154.52 74.5083L153.427 74.5083L153.427 75.5083ZM120.583 75.5083L120.583 76.5083L120.583 76.5083L120.583 75.5083ZM64.4298 76.5083L120.5 76.5083L120.5 74.5083L64.4298 74.5083L64.4298 76.5083ZM64.3545 76.5083H64.4298V74.5083H64.3545V76.5083ZM62.8915 70.363L63.3585 75.5972L65.3506 75.4195L64.8836 70.1852L62.8915 70.363ZM61.8297 58.5622L62.8916 70.3637L64.8836 70.1845L63.8217 58.383L61.8297 58.5622ZM61.2723 52.3181L61.8296 58.5615L63.8217 58.3837L63.2644 52.1403L61.2723 52.3181ZM120.5 51.2292H62.2684V53.2292H120.5V51.2292ZM120.583 51.2292H120.5V53.2292H120.583V51.2292ZM178.867 51.2292H120.583V53.2292H178.867V51.2292ZM179.306 58.5615L179.863 52.3181L177.871 52.1403L177.314 58.3837L179.306 58.5615ZM173.59 122.713L179.306 58.5614L177.314 58.3839L171.598 122.535L173.59 122.713ZM172.588 123.624H172.594V121.624H172.588V123.624ZM169.628 166.966L173.584 122.713L171.592 122.535L167.636 166.788L169.628 166.966ZM169.274 170.898L169.628 166.967L167.636 166.788L167.282 170.719L169.274 170.898ZM120.91 184.974L168.545 171.772L168.011 169.845L120.376 183.047L120.91 184.974ZM121.643 184.019V184.011H119.643V184.019H121.643ZM120.788 185.015L120.901 184.985L120.385 183.052L120.272 183.082L120.788 185.015ZM72.5822 171.772L120.263 185.012L120.798 183.085L73.1173 169.845L72.5822 171.772ZM68.5927 134.348L71.8537 170.898L73.8458 170.72L70.5848 134.171L68.5927 134.348ZM80.3584 133.26H69.5887V135.26H80.3584V133.26ZM92.9582 133.26H80.3584V135.26H92.9582V133.26ZM95.6111 152.735L93.9543 134.171L91.9622 134.348L93.619 152.913L95.6111 152.735ZM120.798 158.863L94.8759 151.859L94.3542 153.789L120.277 160.794L120.798 158.863ZM120.286 158.86L120.263 158.867L120.812 160.79L120.835 160.783L120.286 158.86ZM119.56 159.813V159.822H121.56V159.813H119.56ZM146.26 151.844L120.3 158.848L120.821 160.779L146.781 153.775L146.26 151.844ZM148.237 122.534L145.524 152.72L147.516 152.899L150.229 122.713L148.237 122.534ZM120.5 123.624H149.233V121.624H120.5V123.624ZM120.5 121.624H94.9766V123.624H120.5V121.624ZM94.9766 121.624H94.9013V123.624H94.9766V121.624ZM95.8973 122.535L95.4304 117.301L93.4383 117.478L93.9052 122.713L95.8973 122.535ZM95.4304 117.301L94.376 105.499L92.3839 105.677L93.4383 117.479L95.4304 117.301ZM94.376 105.499L93.8187 99.2558L91.8266 99.4336L92.3839 105.677L94.376 105.499ZM92.8227 100.345L120.5 100.345L120.5 98.3447L92.8227 98.3447L92.8227 100.345ZM151.303 98.3447H120.5V100.345H151.303V98.3447ZM152.431 75.4196L150.307 99.256L152.299 99.4335L154.423 75.5971L152.431 75.4196ZM120.583 76.5083L153.427 76.5083L153.427 74.5083L120.583 74.5083L120.583 76.5083ZM120.5 76.5083L120.583 76.5083L120.583 74.5083L120.5 74.5083L120.5 76.5083Z" fill="#ECECEC" mask="url(#path-2-inside-1_212_671)"/>
</svg>
