<svg width="340" height="394" viewBox="0 0 340 394" fill="none" xmlns="http://www.w3.org/2000/svg">
<g opacity="0.4">
<mask id="path-1-inside-1_212_624" fill="white">
<path fill-rule="evenodd" clip-rule="evenodd" d="M7.69741 209.533C12.457 203.676 33.8245 186.241 47.3233 177.517L47.2826 177.649C47.8735 177.224 48.5808 176.743 49.3938 176.21C51.2652 175.06 52.9345 174.125 54.3214 173.473L58.0582 171.493C58.0582 171.493 61.0814 169.594 66.1684 166.343C75.79 175.179 78.997 189.279 81.1498 208.434C84.6685 237.899 108.42 251.532 136.131 251.972C164.94 252.411 175.277 258.348 186.052 272.862C188.496 276.068 191.152 277.79 193.578 278.764C192.556 280.691 191.68 282.799 191.01 285.197C189.809 287.901 189.009 291.28 188.508 294.949C188.254 295.299 188.093 295.704 188.035 296.169C187.228 302.455 187.131 315.005 187.05 325.501V325.502V325.503V325.504V325.505V325.506V325.507V325.508V325.51V325.511V325.512V325.513V325.514V325.515V325.516V325.517V325.518V325.519V325.521V325.522V325.523V325.524V325.525V325.526V325.527V325.528V325.529V325.53V325.532V325.533V325.534V325.535V325.536V325.537V325.538V325.539V325.54V325.541V325.542V325.544V325.545C187.02 329.349 186.993 332.883 186.934 335.747C186.715 346.521 186.494 348.06 185.615 349.601C185.461 349.909 185.307 350.197 185.152 350.487L185.151 350.487C184.421 351.853 183.663 353.269 182.757 357.077C182.044 360.213 180.961 361.87 179.748 363.727C179.09 364.734 178.394 365.8 177.697 367.192C174.399 373.348 175.058 380.163 178.357 383.243C181.656 386.321 190.672 390.939 202.988 389.4C215.304 387.86 217.062 386.981 215.083 375.107C215.022 374.612 214.751 373.628 214.413 372.402C213.551 369.274 212.253 364.565 212.885 362.353C213.727 360.249 212.869 357.16 212.308 355.142C211.99 353.997 211.767 353.197 212.006 353.118C212.667 352.898 213.546 348.501 213.546 346.302L213.546 346.176C213.545 346.062 213.545 345.931 213.544 345.785C213.529 342.782 213.479 333.2 215.745 328.051C216.733 325.806 218.822 320.736 220.948 315.523C227.689 304.526 228.263 297.601 228.602 293.514L228.617 293.325L228.636 293.104C229.125 289.839 229.385 285.621 228.938 280.998C229.105 280.748 229.374 280.434 229.705 280.05C231.117 278.408 233.639 275.475 233.996 270.664C233.996 270.664 244.293 265.246 251.625 252.282C252.217 254.333 252.8 256.212 253.343 257.959C255.157 263.801 256.518 268.18 256.21 272.64C248.222 278.905 245.253 283.496 244.048 288.002C243.813 287.907 243.613 287.817 243.432 287.736C242.456 287.297 242.077 287.126 240.155 287.813C237.153 288.886 239.378 307.938 242.548 316.429L242.574 317.056C242.574 317.056 242.592 317.065 242.633 317.08C242.655 317.088 242.683 317.098 242.717 317.11C242.749 317.121 242.786 317.133 242.829 317.146C246.104 325.229 247.856 330.063 249.171 338.826C250.385 346.917 246.76 356.684 244.802 361.961C244.697 362.243 244.597 362.512 244.503 362.768C244.444 362.928 244.387 363.084 244.333 363.233C244.333 363.233 241.906 370.516 246.687 375.273L246.752 376.427C246.752 376.427 247.366 376.508 248.366 376.618C253.496 379.741 269.05 379.504 279.565 379.344H279.565H279.566H279.568H279.57H279.572H279.574H279.576H279.578H279.579H279.581H279.583H279.585H279.587H279.588H279.59H279.591H279.592H279.593H279.594H279.595H279.596H279.596H279.597H279.598H279.598C281.632 379.313 283.477 379.285 285.019 379.285C288.771 379.285 293.25 379.813 297.866 380.359L297.867 380.359C305.158 381.219 312.791 382.121 318.447 381.044C318.998 380.949 319.526 380.842 320.032 380.725L320.646 380.824L321.03 380.474C330.111 377.985 331.091 371.965 324.825 368.73C322.693 367.63 320.217 366.702 317.411 365.65L317.41 365.649L317.409 365.649L317.408 365.649C311.24 363.337 303.475 360.427 294.256 353.777C293.179 353.037 291.977 352.317 290.81 351.618L290.807 351.616L290.806 351.615C288.163 350.032 285.696 348.554 285.24 347.182C284.58 345.203 284.58 333.768 284.799 323.874C284.956 316.797 286.688 308.258 288.064 301.475L288.137 301.116C288.291 300.734 288.451 300.212 288.414 299.747C288.819 297.738 289.172 295.926 289.417 294.409C290.446 288.032 288.203 288.198 285.209 288.786C285.383 287.997 285.562 287.211 285.741 286.42L285.741 286.419C286.095 284.862 286.452 283.29 286.779 281.657C292.277 271.541 289.858 262.087 289.858 262.087C302.969 245.387 296.279 209.769 293.385 197.27C303.642 202.131 308.771 200.299 308.771 200.299C310.505 199.34 312.06 197.965 313.435 196.387C318.645 190.59 321.306 182.047 321.306 182.047C321.32 181.898 321.328 181.748 321.329 181.597C333.841 169.068 339.743 150.606 325.486 138.51C328.784 129.055 324.385 121.139 321.967 118.281C324.825 111.244 325.485 99.8112 316.028 90.5759C313.617 88.2766 310.919 86.7782 308.238 85.8218C307.949 85.3962 307.68 84.9934 307.427 84.6133L307.421 84.6052C304.856 80.7585 303.85 79.2505 299.094 80.2416C298.716 79.8294 298.387 79.4333 298.08 79.065C296.424 77.0761 295.445 75.8991 291.177 77.383C291.177 77.383 289.637 73.6446 286.779 72.7658C286.001 72.4414 285.146 72.3848 284.327 72.4662C282.252 71.2148 280.302 70.5984 278.536 70.3914C277.245 70.221 275.925 70.2499 274.63 70.5364C273.992 70.26 273.561 70.0163 273.265 69.6605C272.658 68.9314 272.618 67.7313 272.52 64.8131C272.509 64.4814 272.497 64.1275 272.484 63.7496C272.368 60.5131 272.192 55.8192 271.987 51.647C272.193 49.2524 272.543 45.9207 272.901 42.5087L272.902 42.5056L272.902 42.5023L272.902 42.5012L272.903 42.4978L272.903 42.4954C273.352 38.222 273.813 33.8245 274.024 30.9858C274.463 25.0484 274.683 15.8131 272.044 11.8555C265.886 3.06063 236.857 3.93937 231.358 11.4162C230.799 12.2543 230.284 14.4917 229.884 17.4225C229.741 17.8102 229.664 18.4502 229.648 19.3613C228.974 25.5405 228.787 33.7614 229.599 38.902C229.599 38.902 230.098 44.4923 231.029 48.812C230.937 49.6649 230.833 50.5762 230.718 51.5193L230.699 51.6557L230.701 51.6581C230.308 54.8795 229.789 58.4543 229.159 61.3304C229.036 62.0717 226.902 62.6043 224.197 63.2794L224.196 63.2797L224.196 63.2797L224.196 63.2798L224.196 63.2798L224.195 63.2799C223.598 63.4291 222.972 63.5852 222.335 63.7521C221.624 63.5153 220.893 63.2938 220.142 63.09C217.385 62.2789 215.345 63.7399 212.966 65.4449L212.966 65.4451C212.118 66.0523 211.228 66.6904 210.246 67.2678C209.146 66.6082 204.308 64.4092 201.669 65.9475C200.71 66.5068 199.867 67.0663 199.055 67.6048C197.635 68.5475 196.312 69.4258 194.631 70.1253C193.311 69.4657 189.793 69.4657 186.934 70.5647C184.914 71.1863 182.125 72.3565 179.189 75.0064C142.151 84.2731 102.155 101.187 98.964 102.889C82.6907 111.245 56.0791 125.537 43.9842 135.432C23.3121 152.583 10.9948 172.593 6.15774 187.325C0.000171661 205.576 1.75902 216.57 7.69741 209.533ZM85.7688 202.937C84.2728 187.341 80.0776 172.16 71.5699 163.243L71.6203 163.215C80.0528 172.091 84.2595 187.295 85.7693 202.712L85.7698 202.717L85.7699 202.717C88.6279 232.182 103.364 247.575 141.19 246.694C142.021 246.675 142.84 246.667 143.646 246.67C142.818 246.779 141.999 246.861 141.19 246.913C155.333 246.451 165.862 249.174 174.068 254.087C165.849 249.234 155.294 246.543 141.189 246.914C103.582 247.793 88.6267 232.402 85.7688 202.937ZM290.958 166.435C291.053 159.554 292.395 153.504 294.135 148.375C295.348 149.443 297.003 150.276 299.314 150.823C295.721 158.296 299.548 162.388 302.509 165.554C303.868 167.007 305.045 168.265 305.237 169.565C303.461 170.598 300.885 170.379 298.046 170.137C297.239 170.068 296.411 169.998 295.574 169.954C293.75 169.858 291.925 170.979 290.448 172.271C290.634 170.351 290.796 168.383 290.913 166.973L290.958 166.435Z"/>
</mask>
<path d="M47.3233 177.517L49.2348 178.105L50.8499 172.857L46.2377 175.837L47.3233 177.517ZM7.69741 209.533L9.22583 210.823L9.23781 210.809L9.24952 210.795L7.69741 209.533ZM47.2826 177.649L45.371 177.061L43.6217 182.746L48.4503 179.273L47.2826 177.649ZM49.3938 176.21L48.3463 174.506L48.3219 174.521L48.2978 174.537L49.3938 176.21ZM54.3214 173.473L55.1726 175.282L55.2156 175.262L55.2577 175.24L54.3214 173.473ZM58.0582 171.493L58.9945 173.26L59.0596 173.226L59.1219 173.187L58.0582 171.493ZM66.1684 166.343L67.5213 164.87L66.3879 163.829L65.0914 164.658L66.1684 166.343ZM81.1498 208.434L79.1622 208.658L79.1639 208.672L81.1498 208.434ZM136.131 251.972L136.099 253.971L136.1 253.971L136.131 251.972ZM186.052 272.862L184.446 274.054L184.454 274.064L184.461 274.074L186.052 272.862ZM193.578 278.764L195.345 279.701L196.386 277.736L194.323 276.908L193.578 278.764ZM191.01 285.197L192.838 286.009L192.897 285.876L192.936 285.735L191.01 285.197ZM188.508 294.949L190.127 296.124L190.421 295.717L190.489 295.22L188.508 294.949ZM188.035 296.169L190.018 296.423L190.019 296.417L188.035 296.169ZM187.05 325.501L185.05 325.485L185.05 325.493V325.501H187.05ZM187.05 325.545L189.05 325.56L189.05 325.552V325.545H187.05ZM186.934 335.747L184.935 335.706L184.935 335.707L186.934 335.747ZM185.615 349.601L183.878 348.61L183.85 348.657L183.826 348.707L185.615 349.601ZM185.152 350.487L186.752 351.687L186.843 351.565L186.915 351.431L185.152 350.487ZM185.151 350.487L183.551 349.287L183.46 349.409L183.388 349.544L185.151 350.487ZM182.757 357.077L180.811 356.613L180.809 356.623L180.807 356.633L182.757 357.077ZM179.748 363.727L181.422 364.821L181.422 364.821L179.748 363.727ZM177.697 367.192L179.46 368.136L179.474 368.112L179.486 368.086L177.697 367.192ZM178.357 383.243L176.992 384.705L176.993 384.706L178.357 383.243ZM202.988 389.4L203.237 391.384L203.237 391.384L202.988 389.4ZM215.083 375.107L213.099 375.354L213.104 375.395L213.111 375.436L215.083 375.107ZM214.413 372.402L216.341 371.871L216.341 371.871L214.413 372.402ZM212.885 362.353L211.028 361.61L210.99 361.705L210.962 361.804L212.885 362.353ZM212.308 355.142L210.381 355.678L210.381 355.678L212.308 355.142ZM212.006 353.118L212.637 355.016L212.639 355.015L212.006 353.118ZM213.546 346.302L215.546 346.302L215.546 346.299L213.546 346.302ZM213.546 346.176L215.546 346.173L215.546 346.171L213.546 346.176ZM213.544 345.785L211.544 345.795L211.544 345.795L213.544 345.785ZM215.745 328.051L217.576 328.857L217.576 328.857L215.745 328.051ZM220.948 315.523L219.243 314.478L219.157 314.617L219.096 314.768L220.948 315.523ZM228.602 293.514L226.609 293.349L226.609 293.349L228.602 293.514ZM228.617 293.325L226.624 293.158L226.624 293.159L228.617 293.325ZM228.636 293.104L226.658 292.808L226.648 292.872L226.643 292.937L228.636 293.104ZM228.938 280.998L227.274 279.889L226.879 280.482L226.947 281.191L228.938 280.998ZM229.705 280.05L231.221 281.354L231.221 281.354L229.705 280.05ZM233.996 270.664L233.065 268.894L232.084 269.41L232.002 270.516L233.996 270.664ZM251.625 252.282L253.547 251.728L252.227 247.154L249.884 251.297L251.625 252.282ZM253.343 257.959L255.253 257.366L255.253 257.366L253.343 257.959ZM256.21 272.64L257.444 274.214L258.144 273.665L258.206 272.778L256.21 272.64ZM244.048 288.002L243.292 289.854L245.393 290.711L245.98 288.519L244.048 288.002ZM243.432 287.736L244.253 285.911L244.252 285.911L243.432 287.736ZM240.155 287.813L239.482 285.93L239.482 285.93L240.155 287.813ZM242.548 316.429L244.547 316.349L244.534 316.029L244.422 315.729L242.548 316.429ZM242.574 317.056L240.575 317.137L240.624 318.358L241.734 318.872L242.574 317.056ZM242.633 317.08L241.932 318.953L241.933 318.954L242.633 317.08ZM242.717 317.11L242.078 319.005L242.079 319.005L242.717 317.11ZM242.829 317.146L244.682 316.395L244.325 315.513L243.416 315.234L242.829 317.146ZM249.171 338.826L247.193 339.123L247.193 339.123L249.171 338.826ZM244.802 361.961L246.677 362.657L246.677 362.657L244.802 361.961ZM244.503 362.768L242.627 362.076L242.627 362.076L244.503 362.768ZM244.333 363.233L242.453 362.549L242.444 362.575L242.435 362.601L244.333 363.233ZM246.687 375.273L248.684 375.16L248.641 374.395L248.098 373.855L246.687 375.273ZM246.752 376.427L244.755 376.54L244.848 378.194L246.491 378.41L246.752 376.427ZM248.366 376.618L249.406 374.91L249.026 374.679L248.585 374.63L248.366 376.618ZM279.565 379.344V377.344H279.55L279.535 377.344L279.565 379.344ZM279.598 379.344V381.344H279.613L279.629 381.344L279.598 379.344ZM297.866 380.359L298.114 378.374L298.101 378.372L297.866 380.359ZM297.867 380.359L297.619 382.343L297.632 382.345L297.867 380.359ZM318.447 381.044L318.106 379.073L318.089 379.076L318.073 379.079L318.447 381.044ZM320.032 380.725L320.35 378.751L319.963 378.689L319.582 378.777L320.032 380.725ZM320.646 380.824L320.329 382.799L321.281 382.952L321.994 382.302L320.646 380.824ZM321.03 380.474L320.502 378.545L320.038 378.672L319.683 378.996L321.03 380.474ZM324.825 368.73L325.742 366.953L325.742 366.953L324.825 368.73ZM317.411 365.65L316.686 367.514L316.698 367.519L316.709 367.523L317.411 365.65ZM317.41 365.649L318.134 363.785L318.089 363.768L318.042 363.752L317.41 365.649ZM317.408 365.649L316.706 367.522L316.741 367.535L316.776 367.546L317.408 365.649ZM294.256 353.777L295.426 352.155L295.408 352.142L295.389 352.129L294.256 353.777ZM290.81 351.618L289.769 353.325L289.776 353.329L289.782 353.333L290.81 351.618ZM290.807 351.616L291.848 349.908L291.807 349.883L291.764 349.86L290.807 351.616ZM290.806 351.615L289.778 353.331L289.812 353.351L289.848 353.371L290.806 351.615ZM285.24 347.182L287.137 346.55L287.137 346.549L285.24 347.182ZM284.799 323.874L282.799 323.829L282.799 323.829L284.799 323.874ZM288.064 301.475L290.024 301.873L290.024 301.872L288.064 301.475ZM288.137 301.116L286.283 300.367L286.214 300.538L286.177 300.719L288.137 301.116ZM288.414 299.747L286.453 299.352L286.398 299.626L286.42 299.904L288.414 299.747ZM289.417 294.409L287.442 294.09L287.442 294.09L289.417 294.409ZM285.209 288.786L283.256 288.357L282.601 291.337L285.595 290.749L285.209 288.786ZM285.741 286.42L287.692 286.863L287.697 286.837L287.702 286.812L285.741 286.42ZM285.741 286.419L283.791 285.976L283.785 286.002L283.78 286.027L285.741 286.419ZM286.779 281.657L285.022 280.701L284.877 280.967L284.818 281.264L286.779 281.657ZM289.858 262.087L288.285 260.852L287.676 261.627L287.921 262.583L289.858 262.087ZM293.385 197.27L294.242 195.462L290.504 193.691L291.437 197.721L293.385 197.27ZM308.771 200.299L309.443 202.183L309.596 202.128L309.738 202.05L308.771 200.299ZM313.435 196.387L311.947 195.05L311.937 195.061L311.927 195.073L313.435 196.387ZM321.306 182.047L323.215 182.642L323.278 182.443L323.297 182.234L321.306 182.047ZM321.329 181.597L319.914 180.184L319.336 180.762L319.329 181.579L321.329 181.597ZM325.486 138.51L323.597 137.851L323.145 139.147L324.192 140.035L325.486 138.51ZM321.967 118.281L320.114 117.528L319.658 118.649L320.44 119.573L321.967 118.281ZM316.028 90.5759L317.426 89.145L317.417 89.1366L317.408 89.1283L316.028 90.5759ZM308.238 85.8218L306.584 86.9457L306.951 87.486L307.566 87.7055L308.238 85.8218ZM307.427 84.6133L309.09 83.5036L309.089 83.5017L307.427 84.6133ZM307.421 84.6052L305.757 85.7149L305.758 85.7168L307.421 84.6052ZM299.094 80.2416L297.62 81.5933L298.389 82.4315L299.502 82.1995L299.094 80.2416ZM298.08 79.065L296.543 80.3445L296.543 80.3445L298.08 79.065ZM291.177 77.383L289.327 78.1446L290.047 79.893L291.833 79.2721L291.177 77.383ZM286.779 72.7658L286.009 74.6118L286.099 74.6491L286.191 74.6775L286.779 72.7658ZM284.327 72.4662L283.295 74.179L283.864 74.5222L284.525 74.4564L284.327 72.4662ZM278.536 70.3914L278.274 72.3742L278.288 72.3761L278.303 72.3778L278.536 70.3914ZM274.63 70.5364L273.835 72.3718L274.43 72.6292L275.062 72.4892L274.63 70.5364ZM273.265 69.6605L271.727 70.9395L271.727 70.9395L273.265 69.6605ZM272.52 64.8131L270.521 64.8801L270.521 64.8801L272.52 64.8131ZM272.484 63.7496L270.485 63.8208L270.485 63.8211L272.484 63.7496ZM271.987 51.647L269.994 51.475L269.983 51.61L269.989 51.7453L271.987 51.647ZM272.901 42.5087L270.915 42.2784L270.914 42.2891L270.912 42.2999L272.901 42.5087ZM272.902 42.5056L274.889 42.7359L274.89 42.7249L272.902 42.5056ZM272.902 42.5023L274.89 42.7216L274.892 42.7015L274.894 42.6813L272.902 42.5023ZM272.902 42.5012L270.914 42.2891L270.912 42.3056L270.91 42.3222L272.902 42.5012ZM272.903 42.4978L270.915 42.2749L270.914 42.2857L272.903 42.4978ZM272.903 42.4954L274.891 42.7183L274.892 42.7042L272.903 42.4954ZM274.024 30.9858L276.018 31.1335L276.018 31.1335L274.024 30.9858ZM272.044 11.8555L273.708 10.746L273.696 10.727L273.683 10.7083L272.044 11.8555ZM231.358 11.4162L229.747 10.2312L229.719 10.2682L229.694 10.3065L231.358 11.4162ZM229.884 17.4225L231.76 18.1181L231.836 17.9113L231.866 17.6928L229.884 17.4225ZM229.648 19.3613L231.636 19.5781L231.646 19.4876L231.647 19.3965L229.648 19.3613ZM229.599 38.902L231.591 38.7242L231.585 38.6567L231.574 38.5898L229.599 38.902ZM231.029 48.812L233.018 49.0277L233.052 48.7064L232.984 48.3905L231.029 48.812ZM230.718 51.5193L232.699 51.8004L232.701 51.7805L232.704 51.7605L230.718 51.5193ZM230.699 51.6557L228.719 51.3746L228.578 52.3636L229.285 53.0699L230.699 51.6557ZM230.701 51.6581L232.687 51.9007L232.805 50.9331L232.116 50.2439L230.701 51.6581ZM229.159 61.3304L227.206 60.9028L227.195 60.9518L227.187 61.0013L229.159 61.3304ZM224.197 63.2794L223.713 61.3389L223.712 61.3391L224.197 63.2794ZM224.195 63.2799L224.68 65.2204L224.68 65.2202L224.195 63.2799ZM222.335 63.7521L221.702 65.6495L222.266 65.8374L222.841 65.6869L222.335 63.7521ZM220.142 63.09L219.577 65.0087L219.598 65.0147L219.618 65.0203L220.142 63.09ZM212.966 65.4449L214.113 67.0834L214.122 67.0771L214.131 67.0707L212.966 65.4449ZM212.966 65.4451L211.819 63.8066L211.81 63.8129L211.801 63.8194L212.966 65.4451ZM210.246 67.2678L209.218 68.9831L210.236 69.5939L211.26 68.9916L210.246 67.2678ZM201.669 65.9475L200.662 64.2197L200.662 64.2197L201.669 65.9475ZM199.055 67.6048L197.949 65.9384L197.949 65.9384L199.055 67.6048ZM194.631 70.1253L193.738 71.9145L194.556 72.3231L195.4 71.9717L194.631 70.1253ZM186.934 70.5647L187.522 72.4762L187.588 72.4561L187.652 72.4315L186.934 70.5647ZM179.189 75.0064L179.674 76.9466L180.158 76.8255L180.529 76.4912L179.189 75.0064ZM98.964 102.889L99.8776 104.668L99.8914 104.661L99.9051 104.654L98.964 102.889ZM43.9842 135.432L42.7178 133.884L42.7072 133.893L43.9842 135.432ZM6.15774 187.325L8.05279 187.965L8.0554 187.957L8.05794 187.949L6.15774 187.325ZM71.5699 163.243L70.6016 161.493L68.3334 162.748L70.1229 164.623L71.5699 163.243ZM85.7688 202.937L83.7779 203.128L83.7781 203.13L85.7688 202.937ZM71.6203 163.215L73.0703 161.837L72.0052 160.716L70.6521 161.465L71.6203 163.215ZM85.7693 202.712L83.7788 202.907L83.7789 202.908L85.7693 202.712ZM85.7698 202.717L83.7794 202.913L83.7807 202.925L83.7821 202.938L85.7698 202.717ZM85.7699 202.717L87.7605 202.524L87.7592 202.51L87.7576 202.497L85.7699 202.717ZM141.19 246.694L141.145 244.694L141.144 244.694L141.19 246.694ZM143.646 246.67L143.909 248.652L143.652 244.67L143.646 246.67ZM141.19 246.913L141.062 244.917L141.255 248.912L141.19 246.913ZM174.068 254.087L173.051 255.809L175.095 252.371L174.068 254.087ZM141.189 246.914L141.236 248.914L141.242 248.913L141.189 246.914ZM294.135 148.375L295.456 146.874L293.204 144.891L292.241 147.732L294.135 148.375ZM290.958 166.435L292.951 166.6L292.956 166.532L292.957 166.463L290.958 166.435ZM299.314 150.823L301.117 151.69L302.194 149.45L299.775 148.877L299.314 150.823ZM302.509 165.554L303.97 164.188L303.97 164.188L302.509 165.554ZM305.237 169.565L306.243 171.294L307.414 170.612L307.216 169.272L305.237 169.565ZM298.046 170.137L297.876 172.13L297.876 172.13L298.046 170.137ZM295.574 169.954L295.68 167.956L295.679 167.956L295.574 169.954ZM290.448 172.271L288.457 172.079L287.972 177.097L291.765 173.776L290.448 172.271ZM290.913 166.973L288.92 166.808L288.92 166.809L290.913 166.973ZM46.2377 175.837C39.4054 180.253 30.6275 186.841 22.9736 193.047C15.3778 199.205 8.67826 205.155 6.1453 208.272L9.24952 210.795C11.4762 208.055 17.8402 202.358 25.4927 196.154C33.0871 189.996 41.7424 183.505 48.4088 179.197L46.2377 175.837ZM49.1941 178.238L49.2348 178.105L45.4117 176.929L45.371 177.061L49.1941 178.238ZM48.2978 174.537C47.469 175.08 46.7363 175.579 46.1148 176.026L48.4503 179.273C49.0108 178.87 49.6927 178.405 50.4898 177.883L48.2978 174.537ZM53.4701 171.663C51.9891 172.359 50.2495 173.336 48.3463 174.506L50.4413 177.914C52.281 176.783 53.8799 175.89 55.1726 175.282L53.4701 171.663ZM57.1219 169.726L53.385 171.705L55.2577 175.24L58.9945 173.26L57.1219 169.726ZM65.0914 164.658C62.5505 166.282 60.5253 167.568 59.1359 168.447C58.4411 168.887 57.9053 169.225 57.5434 169.454C57.3625 169.568 57.225 169.654 57.1329 169.712C57.0869 169.741 57.0522 169.763 57.029 169.777C57.0174 169.785 57.0088 169.79 57.003 169.794C57.0001 169.796 56.998 169.797 56.9966 169.798C56.9959 169.798 56.9953 169.799 56.995 169.799C56.9948 169.799 56.9947 169.799 56.9946 169.799C56.9946 169.799 56.9946 169.799 56.9945 169.799C56.9945 169.799 56.9945 169.799 58.0582 171.493C59.1219 173.187 59.1219 173.186 59.122 173.186C59.122 173.186 59.122 173.186 59.1221 173.186C59.1222 173.186 59.1223 173.186 59.1225 173.186C59.1229 173.186 59.1235 173.185 59.1243 173.185C59.1258 173.184 59.1281 173.183 59.1311 173.181C59.1371 173.177 59.146 173.171 59.1578 173.164C59.1814 173.149 59.2166 173.127 59.2632 173.098C59.3563 173.039 59.4947 172.952 59.6767 172.837C60.0406 172.608 60.5786 172.268 61.2755 171.827C62.6694 170.944 64.6994 169.655 67.2455 168.028L65.0914 164.658ZM83.1373 208.211C80.9907 189.111 77.757 174.27 67.5213 164.87L64.8156 167.816C73.8231 176.088 77.0033 189.447 79.1623 208.658L83.1373 208.211ZM136.162 249.972C122.604 249.757 110.17 246.314 100.743 239.469C91.363 232.658 84.8305 222.389 83.1357 208.197L79.1639 208.672C80.9878 223.944 88.0904 235.225 98.3931 242.706C108.649 250.153 121.946 253.747 136.099 253.971L136.162 249.972ZM187.658 271.669C182.156 264.259 176.629 258.856 168.668 255.312C160.769 251.795 150.664 250.193 136.161 249.972L136.1 253.971C150.407 254.19 159.875 255.776 167.041 258.966C174.144 262.129 179.173 266.951 184.446 274.054L187.658 271.669ZM194.323 276.908C192.211 276.06 189.855 274.552 187.643 271.649L184.461 274.074C187.137 277.584 190.092 279.52 192.832 280.62L194.323 276.908ZM192.936 285.735C193.565 283.483 194.386 281.509 195.345 279.701L191.811 277.827C190.726 279.873 189.794 282.114 189.083 284.659L192.936 285.735ZM190.489 295.22C190.977 291.648 191.743 288.474 192.838 286.009L189.182 284.386C187.875 287.329 187.04 290.913 186.526 294.679L190.489 295.22ZM190.019 296.417C190.037 296.277 190.077 296.193 190.127 296.124L186.889 293.775C186.431 294.405 186.149 295.13 186.05 295.92L190.019 296.417ZM189.05 325.516C189.132 314.949 189.231 302.558 190.018 296.423L186.051 295.914C185.225 302.352 185.131 315.06 185.05 325.485L189.05 325.516ZM189.05 325.502V325.501H185.05V325.502H189.05ZM189.05 325.503V325.502H185.05V325.503H189.05ZM189.05 325.504V325.503H185.05V325.504H189.05ZM189.05 325.505V325.504H185.05V325.505H189.05ZM189.05 325.506V325.505H185.05V325.506H189.05ZM189.05 325.507V325.506H185.05V325.507H189.05ZM189.05 325.508V325.507H185.05V325.508H189.05ZM189.05 325.51V325.508H185.05V325.51H189.05ZM189.05 325.511V325.51H185.05V325.511H189.05ZM189.05 325.512V325.511H185.05V325.512H189.05ZM189.05 325.513V325.512H185.05V325.513H189.05ZM189.05 325.514V325.513H185.05V325.514H189.05ZM189.05 325.515V325.514H185.05V325.515H189.05ZM189.05 325.516V325.515H185.05V325.516H189.05ZM189.05 325.517V325.516H185.05V325.517H189.05ZM189.05 325.518V325.517H185.05V325.518H189.05ZM189.05 325.519V325.518H185.05V325.519H189.05ZM189.05 325.521V325.519H185.05V325.521H189.05ZM189.05 325.522V325.521H185.05V325.522H189.05ZM189.05 325.523V325.522H185.05V325.523H189.05ZM189.05 325.524V325.523H185.05V325.524H189.05ZM189.05 325.525V325.524H185.05V325.525H189.05ZM189.05 325.526V325.525H185.05V325.526H189.05ZM189.05 325.527V325.526H185.05V325.527H189.05ZM189.05 325.528V325.527H185.05V325.528H189.05ZM189.05 325.529V325.528H185.05V325.529H189.05ZM189.05 325.53V325.529H185.05V325.53H189.05ZM189.05 325.532V325.53H185.05V325.532H189.05ZM189.05 325.533V325.532H185.05V325.533H189.05ZM189.05 325.534V325.533H185.05V325.534H189.05ZM189.05 325.535V325.534H185.05V325.535H189.05ZM189.05 325.536V325.535H185.05V325.536H189.05ZM189.05 325.537V325.536H185.05V325.537H189.05ZM189.05 325.538V325.537H185.05V325.538H189.05ZM189.05 325.539V325.538H185.05V325.539H189.05ZM189.05 325.54V325.539H185.05V325.54H189.05ZM189.05 325.541V325.54H185.05V325.541H189.05ZM189.05 325.542V325.541H185.05V325.542H189.05ZM189.05 325.544V325.542H185.05V325.544H189.05ZM189.05 325.545V325.544H185.05V325.545H189.05ZM188.934 335.788C188.993 332.908 189.02 329.36 189.05 325.56L185.05 325.529C185.021 329.338 184.993 332.857 184.935 335.706L188.934 335.788ZM187.352 350.592C187.976 349.499 188.302 348.43 188.512 346.336C188.714 344.317 188.825 341.156 188.934 335.788L184.935 335.707C184.825 341.112 184.715 344.107 184.532 345.937C184.356 347.691 184.133 348.163 183.878 348.61L187.352 350.592ZM186.915 351.431C187.069 351.143 187.236 350.832 187.404 350.495L183.826 348.707C183.686 348.986 183.545 349.25 183.388 349.544L186.915 351.431ZM186.751 351.687L186.752 351.687L183.552 349.287L183.551 349.287L186.751 351.687ZM184.703 357.54C185.562 353.931 186.249 352.676 186.915 351.431L183.388 349.544C182.593 351.03 181.765 352.607 180.811 356.613L184.703 357.54ZM181.422 364.821C182.668 362.914 183.913 361.013 184.707 357.52L180.807 356.633C180.175 359.412 179.253 360.827 178.073 362.633L181.422 364.821ZM179.486 368.086C180.126 366.808 180.764 365.828 181.422 364.821L178.073 362.633C177.416 363.64 176.662 364.791 175.909 366.297L179.486 368.086ZM179.722 381.781C178.552 380.689 177.694 378.763 177.55 376.256C177.407 373.779 177.979 370.902 179.46 368.136L175.934 366.247C174.118 369.638 173.369 373.247 173.556 376.486C173.741 379.696 174.862 382.717 176.992 384.705L179.722 381.781ZM202.74 387.415C191.003 388.882 182.579 384.447 179.722 381.781L176.993 384.706C180.732 388.194 190.342 392.996 203.237 391.384L202.74 387.415ZM213.111 375.436C213.603 378.392 213.831 380.494 213.762 382.044C213.695 383.555 213.355 384.303 212.919 384.78C212.441 385.303 211.578 385.802 209.849 386.251C208.129 386.698 205.837 387.028 202.74 387.415L203.237 391.384C206.298 391.002 208.844 390.645 210.855 390.123C212.858 389.602 214.619 388.85 215.873 387.477C217.169 386.058 217.668 384.263 217.758 382.222C217.847 380.219 217.553 377.758 217.056 374.778L213.111 375.436ZM212.485 372.934C212.849 374.255 213.06 375.045 213.099 375.354L217.068 374.859C216.983 374.179 216.652 373.001 216.341 371.871L212.485 372.934ZM210.962 361.804C210.714 362.67 210.688 363.638 210.739 364.532C210.792 365.452 210.938 366.44 211.124 367.41C211.495 369.347 212.057 371.383 212.485 372.934L216.341 371.871C215.906 370.293 215.388 368.411 215.053 366.658C214.885 365.784 214.772 364.984 214.733 364.301C214.692 363.593 214.74 363.142 214.808 362.903L210.962 361.804ZM210.381 355.678C210.666 356.703 210.984 357.855 211.142 358.991C211.305 360.163 211.255 361.044 211.028 361.61L214.742 363.096C215.358 361.558 215.299 359.842 215.104 358.439C214.903 357 214.511 355.599 214.235 354.607L210.381 355.678ZM211.376 351.22C210.056 351.658 209.929 352.943 209.913 353.158C209.886 353.531 209.942 353.884 209.982 354.095C210.067 354.556 210.232 355.143 210.381 355.678L214.235 354.607C214.065 353.996 213.96 353.611 213.915 353.365C213.888 353.224 213.915 353.291 213.902 353.455C213.896 353.539 213.871 353.791 213.72 354.089C213.543 354.436 213.194 354.831 212.637 355.016L211.376 351.22ZM211.546 346.302C211.546 347.209 211.354 348.707 211.069 350.03C210.927 350.686 210.778 351.225 210.648 351.58C210.58 351.764 210.542 351.831 210.547 351.824C210.549 351.819 210.592 351.746 210.685 351.649C210.766 351.564 210.99 351.348 211.374 351.22L212.639 355.015C213.105 354.86 213.414 354.584 213.58 354.409C213.758 354.222 213.888 354.03 213.977 353.88C214.157 353.581 214.295 353.252 214.403 352.958C214.623 352.358 214.818 351.619 214.979 350.874C215.298 349.394 215.546 347.594 215.546 346.302H211.546ZM211.546 346.179L211.546 346.305L215.546 346.299L215.546 346.173L211.546 346.179ZM211.544 345.795C211.545 345.942 211.545 346.071 211.546 346.182L215.546 346.171C215.545 346.054 215.545 345.92 215.544 345.774L211.544 345.795ZM213.915 327.246C212.637 330.149 212.067 334.12 211.795 337.565C211.519 341.07 211.536 344.29 211.544 345.795L215.544 345.774C215.536 344.277 215.521 341.203 215.783 337.88C216.05 334.496 216.588 331.102 217.576 328.857L213.915 327.246ZM219.096 314.768C216.966 319.99 214.889 325.031 213.915 327.246L217.576 328.857C218.577 326.581 220.678 321.482 222.8 316.278L219.096 314.768ZM226.609 293.349C226.286 297.24 225.769 303.831 219.243 314.478L222.653 316.568C229.609 305.22 230.24 297.962 230.595 293.68L226.609 293.349ZM226.624 293.159L226.609 293.349L230.595 293.68L230.611 293.491L226.624 293.159ZM226.643 292.937L226.624 293.158L230.61 293.492L230.629 293.271L226.643 292.937ZM226.947 281.191C227.377 285.629 227.126 289.681 226.658 292.808L230.614 293.4C231.123 289.996 231.394 285.613 230.929 280.805L226.947 281.191ZM228.188 278.746C227.893 279.089 227.525 279.512 227.274 279.889L230.602 282.107C230.685 281.984 230.855 281.78 231.221 281.354L228.188 278.746ZM232.002 270.516C231.696 274.639 229.563 277.147 228.188 278.746L231.221 281.354C232.67 279.67 235.583 276.311 235.991 270.812L232.002 270.516ZM249.884 251.297C246.356 257.535 242.116 261.955 238.764 264.812C237.089 266.24 235.64 267.273 234.62 267.944C234.111 268.279 233.71 268.523 233.442 268.68C233.308 268.759 233.207 268.816 233.143 268.851C233.111 268.869 233.089 268.881 233.076 268.888C233.069 268.892 233.065 268.894 233.063 268.895C233.062 268.895 233.062 268.895 233.062 268.895C233.062 268.895 233.063 268.895 233.063 268.895C233.063 268.895 233.064 268.894 233.064 268.894C233.065 268.894 233.065 268.894 233.996 270.664C234.928 272.434 234.928 272.433 234.929 272.433C234.929 272.433 234.93 272.432 234.931 272.432C234.932 272.432 234.933 272.431 234.934 272.43C234.937 272.429 234.941 272.427 234.945 272.425C234.953 272.42 234.964 272.414 234.977 272.407C235.003 272.393 235.039 272.374 235.084 272.348C235.175 272.298 235.303 272.226 235.465 272.131C235.789 271.941 236.249 271.661 236.819 271.285C237.959 270.535 239.543 269.404 241.358 267.856C244.987 264.764 249.561 259.993 253.366 253.267L249.884 251.297ZM255.253 257.366C254.71 255.617 254.132 253.756 253.547 251.728L249.703 252.836C250.301 254.909 250.891 256.807 251.433 258.553L255.253 257.366ZM258.206 272.778C258.544 267.871 257.036 263.108 255.253 257.366L251.433 258.553C253.279 264.494 254.492 268.49 254.215 272.503L258.206 272.778ZM245.98 288.519C247.031 284.591 249.639 280.335 257.444 274.214L254.976 271.066C246.805 277.474 243.476 282.4 242.116 287.485L245.98 288.519ZM242.612 289.56C242.792 289.64 243.021 289.744 243.292 289.854L244.803 286.151C244.605 286.07 244.434 285.993 244.253 285.911L242.612 289.56ZM240.828 289.696C241.758 289.364 242.036 289.35 242.098 289.352C242.098 289.352 242.102 289.349 242.152 289.365C242.237 289.393 242.344 289.439 242.612 289.56L244.252 285.911C243.813 285.714 243.119 285.376 242.199 285.353C241.347 285.331 240.474 285.575 239.482 285.93L240.828 289.696ZM244.422 315.729C242.92 311.708 241.596 305.011 241.027 299.146C240.744 296.22 240.659 293.604 240.81 291.701C240.887 290.738 241.016 290.063 241.157 289.653C241.339 289.125 241.365 289.504 240.828 289.696L239.482 285.93C238.195 286.39 237.634 287.599 237.375 288.351C237.075 289.222 236.91 290.278 236.823 291.385C236.645 293.621 236.752 296.499 237.046 299.532C237.632 305.584 239.006 312.659 240.675 317.128L244.422 315.729ZM244.572 316.976L244.547 316.349L240.55 316.509L240.575 317.137L244.572 316.976ZM243.334 315.207C243.335 315.207 243.342 315.21 243.355 315.216C243.362 315.218 243.37 315.222 243.38 315.226C243.385 315.228 243.39 315.231 243.396 315.233C243.398 315.234 243.401 315.236 243.404 315.237C243.406 315.238 243.407 315.238 243.409 315.239C243.409 315.239 243.41 315.24 243.411 315.24C243.411 315.24 243.412 315.241 243.412 315.241C243.412 315.241 243.413 315.241 243.413 315.241C243.413 315.241 243.413 315.241 243.413 315.241C243.413 315.241 243.413 315.241 242.574 317.056C241.734 318.872 241.734 318.872 241.734 318.872C241.734 318.872 241.734 318.872 241.735 318.872C241.735 318.872 241.735 318.872 241.735 318.872C241.736 318.872 241.736 318.873 241.736 318.873C241.737 318.873 241.738 318.873 241.739 318.874C241.74 318.875 241.742 318.875 241.744 318.876C241.747 318.878 241.75 318.879 241.754 318.881C241.76 318.884 241.767 318.887 241.774 318.89C241.789 318.896 241.804 318.903 241.821 318.91C241.853 318.923 241.89 318.938 241.932 318.953L243.334 315.207ZM243.357 315.215C243.341 315.21 243.334 315.207 243.333 315.207L241.933 318.954C241.976 318.97 242.024 318.987 242.078 319.005L243.357 315.215ZM243.416 315.234C243.389 315.226 243.369 315.219 243.356 315.215L242.079 319.005C242.128 319.022 242.183 319.04 242.242 319.058L243.416 315.234ZM251.149 338.529C249.8 329.542 247.984 324.542 244.682 316.395L240.975 317.897C244.225 325.916 245.912 330.584 247.193 339.123L251.149 338.529ZM246.677 362.657C247.654 360.023 249.089 356.161 250.119 351.921C251.145 347.7 251.811 342.945 251.149 338.529L247.193 339.123C247.744 342.798 247.205 346.971 246.232 350.976C245.264 354.961 243.908 358.621 242.927 361.265L246.677 362.657ZM246.38 363.459C246.473 363.206 246.572 362.939 246.677 362.657L242.927 361.265C242.822 361.547 242.722 361.818 242.627 362.076L246.38 363.459ZM246.212 363.917C246.265 363.771 246.321 363.618 246.38 363.459L242.627 362.076C242.567 362.238 242.509 362.396 242.453 362.549L246.212 363.917ZM248.098 373.855C246.224 371.992 245.709 369.591 245.717 367.477C245.721 366.43 245.855 365.504 245.989 364.841C246.055 364.512 246.12 364.253 246.167 364.083C246.19 363.998 246.208 363.936 246.22 363.899C246.225 363.88 246.229 363.868 246.231 363.862C246.232 363.86 246.232 363.858 246.232 363.859C246.232 363.859 246.232 363.86 246.232 363.861C246.231 363.861 246.231 363.862 246.231 363.863C246.231 363.863 246.231 363.864 246.231 363.864C246.23 363.865 246.23 363.865 244.333 363.233C242.435 362.601 242.435 362.602 242.435 362.602C242.435 362.603 242.434 362.603 242.434 362.604C242.434 362.605 242.433 362.607 242.433 362.608C242.432 362.611 242.431 362.614 242.43 362.618C242.427 362.625 242.424 362.635 242.421 362.646C242.414 362.668 242.404 362.697 242.393 362.733C242.372 362.805 242.342 362.904 242.309 363.028C242.241 363.275 242.154 363.622 242.068 364.05C241.896 364.901 241.722 366.094 241.717 367.462C241.707 370.179 242.368 373.798 245.277 376.691L248.098 373.855ZM248.749 376.315L248.684 375.16L244.69 375.385L244.755 376.54L248.749 376.315ZM248.585 374.63C248.093 374.576 247.698 374.529 247.426 374.496C247.291 374.48 247.186 374.466 247.116 374.458C247.081 374.453 247.055 374.45 247.037 374.447C247.029 374.446 247.022 374.446 247.018 374.445C247.016 374.445 247.015 374.445 247.014 374.444C247.014 374.444 247.013 374.444 247.013 374.444C247.013 374.444 247.013 374.444 247.013 374.444C247.013 374.444 247.013 374.444 247.013 374.444C247.013 374.444 247.013 374.444 247.013 374.444C247.013 374.444 247.013 374.444 246.752 376.427C246.491 378.41 246.491 378.41 246.491 378.41C246.491 378.41 246.491 378.41 246.491 378.41C246.491 378.41 246.491 378.41 246.491 378.41C246.491 378.41 246.492 378.41 246.492 378.41C246.492 378.41 246.493 378.41 246.494 378.41C246.495 378.411 246.497 378.411 246.5 378.411C246.506 378.412 246.513 378.413 246.524 378.414C246.544 378.417 246.573 378.421 246.611 378.426C246.688 378.435 246.799 378.449 246.942 378.467C247.227 378.502 247.639 378.55 248.148 378.606L248.585 374.63ZM279.535 377.344C274.264 377.424 267.816 377.522 262.053 377.215C259.171 377.062 256.507 376.809 254.275 376.414C251.994 376.011 250.362 375.491 249.406 374.91L247.326 378.326C248.936 379.306 251.171 379.928 253.578 380.353C256.034 380.788 258.877 381.052 261.84 381.209C267.765 381.525 274.352 381.424 279.596 381.344L279.535 377.344ZM279.565 377.344H279.565V381.344H279.565V377.344ZM279.566 377.344H279.565V381.344H279.566V377.344ZM279.568 377.344H279.566V381.344H279.568V377.344ZM279.57 377.344H279.568V381.344H279.57V377.344ZM279.572 377.344H279.57V381.344H279.572V377.344ZM279.574 377.344H279.572V381.344H279.574V377.344ZM279.576 377.344H279.574V381.344H279.576V377.344ZM279.578 377.344H279.576V381.344H279.578V377.344ZM279.579 377.344H279.578V381.344H279.579V377.344ZM279.581 377.344H279.579V381.344H279.581V377.344ZM279.583 377.344H279.581V381.344H279.583V377.344ZM279.585 377.344H279.583V381.344H279.585V377.344ZM279.587 377.344H279.585V381.344H279.587V377.344ZM279.588 377.344H279.587V381.344H279.588V377.344ZM279.59 377.344H279.588V381.344H279.59V377.344ZM279.591 377.344H279.59V381.344H279.591V377.344ZM279.592 377.344H279.591V381.344H279.592V377.344ZM279.593 377.344H279.592V381.344H279.593V377.344ZM279.594 377.344H279.593V381.344H279.594V377.344ZM279.595 377.344H279.594V381.344H279.595V377.344ZM279.596 377.344H279.595V381.344H279.596V377.344ZM279.596 377.344H279.596V381.344H279.596V377.344ZM279.597 377.344H279.596V381.344H279.597V377.344ZM279.598 377.344H279.597V381.344H279.598V377.344ZM279.598 377.344H279.598V381.344H279.598V377.344ZM285.019 377.285C283.458 377.285 281.596 377.313 279.567 377.344L279.629 381.344C281.667 381.313 283.495 381.285 285.019 381.285V377.285ZM298.101 378.372C293.52 377.831 288.913 377.285 285.019 377.285V381.285C288.628 381.285 292.979 381.795 297.632 382.345L298.101 378.372ZM298.115 378.374L298.114 378.374L297.618 382.343L297.619 382.343L298.115 378.374ZM318.073 379.079C312.788 380.086 305.507 379.247 298.101 378.372L297.632 382.345C304.808 383.192 312.795 384.156 318.821 383.009L318.073 379.079ZM319.582 378.777C319.114 378.885 318.622 378.984 318.106 379.073L318.788 383.015C319.374 382.914 319.939 382.8 320.482 382.674L319.582 378.777ZM320.964 378.849L320.35 378.751L319.715 382.7L320.329 382.799L320.964 378.849ZM319.683 378.996L319.299 379.346L321.994 382.302L322.378 381.952L319.683 378.996ZM323.907 370.507C326.642 371.919 326.996 373.454 326.751 374.363C326.436 375.538 324.816 377.363 320.502 378.545L321.559 382.403C326.325 381.097 329.737 378.667 330.614 375.401C331.564 371.869 329.274 368.776 325.742 366.953L323.907 370.507ZM316.709 367.523C319.545 368.586 321.902 369.472 323.908 370.507L325.742 366.953C323.485 365.788 320.889 364.818 318.113 363.777L316.709 367.523ZM316.685 367.513L316.686 367.514L318.136 363.786L318.134 363.785L316.685 367.513ZM316.776 367.546L316.777 367.547L318.042 363.752L318.041 363.752L316.776 367.546ZM316.776 367.546L316.776 367.546L318.041 363.752L318.04 363.752L316.776 367.546ZM293.086 355.4C302.532 362.212 310.506 365.198 316.706 367.522L318.11 363.776C311.973 361.476 304.418 358.641 295.426 352.155L293.086 355.4ZM289.782 353.333C290.961 354.039 292.107 354.727 293.123 355.426L295.389 352.129C294.251 351.347 292.994 350.595 291.838 349.902L289.782 353.333ZM289.765 353.323L289.769 353.325L291.851 349.91L291.848 349.908L289.765 353.323ZM289.848 353.371L289.849 353.371L291.764 349.86L291.763 349.859L289.848 353.371ZM283.342 347.813C283.585 348.544 284.039 349.141 284.477 349.604C284.927 350.081 285.465 350.523 286.017 350.93C287.114 351.737 288.481 352.554 289.778 353.331L291.833 349.899C290.487 349.093 289.3 348.379 288.388 347.708C287.937 347.376 287.607 347.093 287.384 346.857C287.148 346.607 287.122 346.506 287.137 346.55L283.342 347.813ZM282.799 323.829C282.69 328.79 282.634 334.147 282.69 338.521C282.718 340.706 282.773 342.665 282.865 344.215C282.911 344.989 282.967 345.68 283.037 346.257C283.101 346.795 283.191 347.362 283.342 347.814L287.137 346.549C287.138 346.553 287.133 346.538 287.124 346.499C287.114 346.46 287.103 346.407 287.09 346.337C287.064 346.196 287.036 346.012 287.008 345.779C286.952 345.313 286.901 344.709 286.858 343.978C286.771 342.518 286.717 340.629 286.69 338.471C286.635 334.16 286.689 328.852 286.798 323.918L282.799 323.829ZM286.104 301.077C284.738 307.813 282.962 316.539 282.799 323.829L286.798 323.918C286.951 317.055 288.639 308.703 290.024 301.873L286.104 301.077ZM286.177 300.719L286.104 301.077L290.024 301.872L290.097 301.514L286.177 300.719ZM286.42 299.904C286.417 299.867 286.425 299.899 286.398 300.013C286.374 300.12 286.333 300.242 286.283 300.367L289.992 301.865C290.174 301.414 290.482 300.534 290.408 299.59L286.42 299.904ZM287.442 294.09C287.205 295.565 286.858 297.343 286.453 299.352L290.375 300.142C290.779 298.133 291.14 296.287 291.391 294.727L287.442 294.09ZM285.595 290.749C286.353 290.6 286.876 290.519 287.27 290.52C287.651 290.521 287.634 290.6 287.53 290.513C287.417 290.417 287.556 290.427 287.631 291.013C287.708 291.61 287.686 292.579 287.442 294.09L291.391 294.728C291.662 293.05 291.746 291.648 291.598 290.502C291.449 289.344 291.033 288.236 290.114 287.459C289.204 286.689 288.129 286.522 287.279 286.52C286.443 286.518 285.563 286.679 284.824 286.824L285.595 290.749ZM283.791 285.977C283.612 286.766 283.431 287.56 283.256 288.357L287.163 289.216C287.334 288.435 287.512 287.655 287.692 286.863L283.791 285.977ZM283.78 286.027L283.78 286.028L287.702 286.812L287.702 286.812L283.78 286.027ZM284.818 281.264C284.497 282.868 284.145 284.416 283.791 285.976L287.692 286.862C288.044 285.309 288.407 283.711 288.74 282.049L284.818 281.264ZM289.858 262.087C287.921 262.583 287.921 262.582 287.92 262.581C287.92 262.581 287.92 262.58 287.92 262.58C287.92 262.579 287.92 262.579 287.92 262.578C287.919 262.577 287.919 262.577 287.919 262.577C287.92 262.578 287.92 262.58 287.921 262.585C287.924 262.595 287.928 262.614 287.934 262.641C287.947 262.695 287.966 262.783 287.99 262.903C288.038 263.144 288.104 263.512 288.168 263.989C288.297 264.946 288.42 266.339 288.381 268.033C288.304 271.424 287.584 275.987 285.022 280.701L288.536 282.612C291.472 277.211 292.292 271.989 292.38 268.124C292.424 266.19 292.285 264.587 292.132 263.455C292.056 262.888 291.976 262.438 291.913 262.122C291.882 261.964 291.854 261.84 291.834 261.75C291.824 261.706 291.815 261.67 291.809 261.643C291.806 261.63 291.803 261.619 291.801 261.61C291.8 261.606 291.799 261.602 291.798 261.599C291.798 261.597 291.797 261.596 291.797 261.595C291.797 261.594 291.796 261.593 291.796 261.593C291.796 261.592 291.796 261.591 289.858 262.087ZM291.437 197.721C292.87 203.914 295.235 215.799 295.624 228.166C296.018 240.649 294.375 253.095 288.285 260.852L291.432 263.322C298.452 254.379 300.02 240.666 299.622 228.04C299.221 215.299 296.794 203.125 295.334 196.819L291.437 197.721ZM308.771 200.299C308.098 198.416 308.099 198.415 308.101 198.415C308.101 198.414 308.102 198.414 308.103 198.414C308.105 198.413 308.106 198.413 308.108 198.412C308.111 198.411 308.114 198.41 308.116 198.409C308.121 198.408 308.124 198.406 308.127 198.406C308.132 198.404 308.132 198.404 308.127 198.406C308.117 198.408 308.088 198.417 308.039 198.429C307.942 198.454 307.767 198.493 307.513 198.531C307.007 198.607 306.184 198.677 305.041 198.611C302.759 198.477 299.162 197.794 294.242 195.462L292.529 199.077C297.865 201.606 301.961 202.438 304.808 202.604C306.229 202.687 307.328 202.603 308.104 202.487C308.492 202.429 308.798 202.364 309.021 202.307C309.133 202.279 309.224 202.253 309.294 202.231C309.329 202.221 309.359 202.211 309.384 202.203C309.397 202.199 309.408 202.195 309.418 202.191C309.423 202.19 309.427 202.188 309.431 202.187C309.433 202.186 309.436 202.185 309.438 202.185C309.438 202.184 309.44 202.184 309.44 202.184C309.442 202.183 309.443 202.183 308.771 200.299ZM311.927 195.073C310.657 196.53 309.278 197.733 307.803 198.549L309.738 202.05C311.732 200.947 313.463 199.4 314.943 197.701L311.927 195.073ZM321.306 182.047C319.396 181.453 319.397 181.452 319.397 181.452C319.397 181.452 319.397 181.452 319.397 181.452C319.397 181.451 319.397 181.451 319.397 181.451C319.397 181.452 319.397 181.452 319.396 181.453C319.395 181.456 319.394 181.46 319.392 181.466C319.388 181.479 319.382 181.499 319.372 181.528C319.354 181.584 319.326 181.67 319.287 181.784C319.21 182.013 319.092 182.351 318.934 182.777C318.617 183.63 318.141 184.831 317.507 186.207C316.23 188.982 314.361 192.364 311.947 195.05L314.922 197.724C317.718 194.613 319.785 190.825 321.141 187.88C321.824 186.395 322.339 185.098 322.684 184.169C322.856 183.704 322.987 183.329 323.076 183.067C323.12 182.937 323.154 182.834 323.177 182.762C323.189 182.726 323.198 182.698 323.204 182.678C323.207 182.668 323.21 182.66 323.212 182.654C323.213 182.651 323.213 182.649 323.214 182.647C323.214 182.646 323.215 182.645 323.215 182.644C323.215 182.644 323.215 182.643 323.215 182.643C323.215 182.643 323.215 182.642 321.306 182.047ZM319.329 181.579C319.328 181.674 319.323 181.768 319.315 181.861L323.297 182.234C323.317 182.028 323.327 181.821 323.329 181.616L319.329 181.579ZM324.192 140.035C330.741 145.592 332.626 152.508 331.472 159.568C330.3 166.738 325.965 174.125 319.914 180.184L322.744 183.011C329.205 176.541 334.077 168.431 335.42 160.214C336.781 151.887 334.488 143.524 326.779 136.985L324.192 140.035ZM320.44 119.573C322.596 122.121 326.578 129.307 323.597 137.851L327.374 139.169C330.99 128.803 326.175 120.158 323.494 116.989L320.44 119.573ZM314.631 92.0068C323.351 100.522 322.757 111.02 320.114 117.528L323.82 119.033C326.892 111.469 327.62 99.1002 317.426 89.145L314.631 92.0068ZM307.566 87.7055C310.021 88.5815 312.467 89.9439 314.648 92.0234L317.408 89.1283C314.766 86.6092 311.816 84.9749 308.91 83.938L307.566 87.7055ZM305.763 85.7229C306.016 86.1024 306.289 86.5121 306.584 86.9457L309.892 84.6979C309.609 84.2804 309.344 83.8843 309.09 83.5036L305.763 85.7229ZM305.758 85.7168L305.764 85.7248L309.089 83.5017L309.084 83.4936L305.758 85.7168ZM299.502 82.1995C301.692 81.7431 302.5 81.9787 303.014 82.302C303.736 82.7563 304.38 83.6505 305.757 85.7149L309.085 83.4955C307.896 81.7132 306.755 79.93 305.144 78.9164C303.325 77.7718 301.252 77.7489 298.686 78.2836L299.502 82.1995ZM296.543 80.3445C296.847 80.7096 297.205 81.1409 297.62 81.5933L300.568 78.8898C300.227 78.5179 299.926 78.157 299.617 77.7856L296.543 80.3445ZM291.833 79.2721C293.838 78.5751 294.601 78.684 294.926 78.8019C295.309 78.9406 295.629 79.2469 296.543 80.3445L299.617 77.7856C298.875 76.8943 297.878 75.6176 296.29 75.0416C294.644 74.4447 292.783 74.707 290.52 75.4939L291.833 79.2721ZM286.191 74.6775C286.991 74.9235 287.768 75.6459 288.419 76.5624C288.724 76.9914 288.959 77.4029 289.116 77.7063C289.194 77.8567 289.251 77.9768 289.287 78.0546C289.305 78.0934 289.317 78.1213 289.324 78.1369C289.327 78.1447 289.329 78.1494 289.33 78.1507C289.33 78.1514 289.33 78.1512 289.33 78.1502C289.33 78.1497 289.329 78.149 289.329 78.1481C289.329 78.1476 289.328 78.1471 289.328 78.1465C289.328 78.1462 289.328 78.1457 289.328 78.1456C289.328 78.1451 289.327 78.1446 291.177 77.383C293.026 76.6213 293.026 76.6208 293.026 76.6203C293.025 76.62 293.025 76.6195 293.025 76.6191C293.025 76.6183 293.024 76.6174 293.024 76.6165C293.023 76.6147 293.022 76.6126 293.021 76.6103C293.019 76.6057 293.017 76.6001 293.014 76.5937C293.009 76.5809 293.002 76.5644 292.993 76.5446C292.976 76.505 292.953 76.4518 292.923 76.3867C292.863 76.2566 292.778 76.0778 292.667 75.8639C292.446 75.4389 292.117 74.8608 291.68 74.2454C290.847 73.0731 289.425 71.4869 287.367 70.8541L286.191 74.6775ZM284.525 74.4564C285.134 74.3958 285.631 74.4543 286.009 74.6118L287.549 70.9198C286.37 70.4285 285.157 70.3737 284.129 70.476L284.525 74.4564ZM278.303 72.3778C279.773 72.5501 281.451 73.0676 283.295 74.179L285.36 70.7534C283.052 69.3619 280.831 68.6468 278.769 68.405L278.303 72.3778ZM275.062 72.4892C276.103 72.2587 277.187 72.2307 278.274 72.3742L278.798 68.4086C277.303 68.2113 275.746 68.241 274.198 68.5837L275.062 72.4892ZM271.727 70.9395C272.347 71.6841 273.162 72.0803 273.835 72.3718L275.425 68.7011C275.141 68.5781 274.978 68.4938 274.877 68.4309C274.787 68.3751 274.783 68.3581 274.802 68.3814L271.727 70.9395ZM270.521 64.8801C270.569 66.2943 270.605 67.4407 270.718 68.3151C270.834 69.2072 271.063 70.1412 271.727 70.9395L274.802 68.3814C274.86 68.4507 274.766 68.4201 274.685 67.8004C274.602 67.1628 274.569 66.2501 274.519 64.7461L270.521 64.8801ZM270.485 63.8211C270.498 64.1965 270.51 64.5482 270.521 64.8801L274.519 64.7462C274.508 64.4146 274.496 64.0586 274.482 63.6781L270.485 63.8211ZM269.989 51.7453C270.194 55.9034 270.37 60.5861 270.485 63.8208L274.482 63.6785C274.367 60.4402 274.19 55.7351 273.984 51.5487L269.989 51.7453ZM270.912 42.2999C270.555 45.7043 270.203 49.0576 269.994 51.475L273.979 51.8189C274.184 49.4471 274.532 46.137 274.891 42.7176L270.912 42.2999ZM270.915 42.2752L270.915 42.2784L274.888 42.7391L274.889 42.7359L270.915 42.2752ZM270.914 42.2829L270.914 42.2862L274.89 42.7249L274.89 42.7216L270.914 42.2829ZM270.91 42.3222L270.91 42.3232L274.894 42.6813L274.894 42.6803L270.91 42.3222ZM270.914 42.2857L270.914 42.2891L274.891 42.7134L274.891 42.7099L270.914 42.2857ZM270.915 42.2725L270.915 42.2749L274.89 42.7207L274.89 42.7183L270.915 42.2725ZM272.029 30.8382C271.822 33.6386 271.364 37.9988 270.914 42.2865L274.892 42.7042C275.339 38.4452 275.805 34.0104 276.018 31.1335L272.029 30.8382ZM270.38 12.9651C271.378 14.4607 271.973 17.2745 272.192 20.802C272.404 24.2168 272.246 27.9075 272.029 30.8382L276.018 31.1335C276.241 28.1268 276.412 24.2311 276.184 20.5545C275.963 16.9905 275.35 13.208 273.708 10.746L270.38 12.9651ZM232.969 12.6011C233.928 11.2977 236.21 9.9903 239.704 9.02095C243.092 8.08068 247.249 7.5605 251.466 7.53392C255.686 7.50733 259.869 7.97539 263.319 8.94981C266.841 9.94474 269.264 11.372 270.406 13.0027L273.683 10.7083C271.745 7.94159 268.23 6.18064 264.406 5.10041C260.509 3.99968 255.936 3.50567 251.441 3.534C246.944 3.56234 242.427 4.11407 238.634 5.16657C234.946 6.19 231.537 7.79623 229.747 10.2312L232.969 12.6011ZM231.866 17.6928C232.061 16.2661 232.278 15.0456 232.506 14.1034C232.619 13.6323 232.73 13.2544 232.832 12.9676C232.883 12.8253 232.927 12.7167 232.964 12.6373C233.002 12.5554 233.023 12.5236 233.022 12.5259L229.694 10.3065C229.2 11.0476 228.868 12.1273 228.617 13.1657C228.347 14.2844 228.108 15.6481 227.903 17.1522L231.866 17.6928ZM231.647 19.3965C231.655 18.9835 231.675 18.669 231.704 18.4371C231.733 18.1918 231.764 18.1065 231.76 18.1181L228.009 16.7269C227.737 17.4601 227.664 18.4002 227.648 19.326L231.647 19.3965ZM231.574 38.5898C230.802 33.7001 230.971 25.6789 231.636 19.5781L227.66 19.1444C226.977 25.4022 226.771 33.8226 227.623 39.2142L231.574 38.5898ZM232.984 48.3905C232.537 46.3159 232.188 43.9061 231.95 41.9901C231.831 41.0375 231.741 40.2175 231.681 39.6368C231.651 39.3465 231.628 39.1164 231.613 38.9598C231.606 38.8815 231.6 38.8216 231.596 38.7818C231.594 38.7619 231.593 38.747 231.592 38.7373C231.592 38.7325 231.591 38.7289 231.591 38.7268C231.591 38.7257 231.591 38.7249 231.591 38.7245C231.591 38.7243 231.591 38.7241 231.591 38.7241C231.591 38.7241 231.591 38.7241 231.591 38.7241C231.591 38.7241 231.591 38.7242 229.599 38.902C227.607 39.0798 227.607 39.0799 227.607 39.0801C227.607 39.0802 227.607 39.0803 227.607 39.0805C227.607 39.0808 227.607 39.0811 227.607 39.0816C227.607 39.0825 227.607 39.0838 227.607 39.0854C227.608 39.0886 227.608 39.0932 227.609 39.0991C227.61 39.1108 227.611 39.1278 227.613 39.1499C227.617 39.1941 227.623 39.2585 227.631 39.3415C227.647 39.5075 227.671 39.7479 227.702 40.0492C227.765 40.6516 227.858 41.4992 227.98 42.4841C228.224 44.4432 228.59 46.9883 229.074 49.2334L232.984 48.3905ZM232.704 51.7605C232.819 50.8078 232.924 49.8879 233.018 49.0277L229.041 48.5963C228.949 49.4418 228.846 50.3446 228.733 51.2782L232.704 51.7605ZM232.679 51.9367L232.699 51.8004L228.738 51.2383L228.719 51.3746L232.679 51.9367ZM232.116 50.2439L232.113 50.2414L229.285 53.0699L229.287 53.0723L232.116 50.2439ZM231.113 61.758C231.763 58.7893 232.291 55.141 232.687 51.9007L228.716 51.4155C228.325 54.618 227.815 58.1192 227.206 60.9028L231.113 61.758ZM224.682 65.2199C225.999 64.8912 227.313 64.5652 228.306 64.2176C228.798 64.0457 229.331 63.8289 229.783 63.5416C230.157 63.3049 230.954 62.7248 231.132 61.6595L227.187 61.0013C227.303 60.3066 227.787 60.0711 227.641 60.1638C227.574 60.206 227.381 60.3036 226.986 60.4419C226.206 60.7147 225.101 60.9926 223.713 61.3389L224.682 65.2199ZM224.681 65.22L224.682 65.2197L223.712 61.3391L223.711 61.3394L224.681 65.22ZM224.681 65.22L224.681 65.22L223.711 61.3394L223.711 61.3394L224.681 65.22ZM224.681 65.2201L224.681 65.22L223.711 61.3394L223.711 61.3395L224.681 65.2201ZM224.681 65.2201L224.681 65.2201L223.711 61.3395L223.711 61.3396L224.681 65.2201ZM224.68 65.2202L224.681 65.2201L223.711 61.3396L223.71 61.3396L224.68 65.2202ZM222.841 65.6869C223.466 65.5234 224.081 65.3699 224.68 65.2204L223.711 61.3394C223.115 61.4882 222.479 61.647 221.828 61.8172L222.841 65.6869ZM219.618 65.0203C220.333 65.214 221.027 65.4245 221.702 65.6495L222.967 61.8547C222.221 61.6061 221.454 61.3736 220.665 61.1597L219.618 65.0203ZM214.131 67.0707C216.672 65.25 217.899 64.5149 219.577 65.0087L220.706 61.1713C216.87 60.0429 214.019 62.2299 211.801 63.8192L214.131 67.0707ZM214.113 67.0836L214.113 67.0834L211.819 63.8065L211.819 63.8066L214.113 67.0836ZM211.26 68.9916C212.331 68.3616 213.292 67.6714 214.13 67.0708L211.801 63.8194C210.944 64.4331 210.124 65.0191 209.232 65.544L211.26 68.9916ZM202.676 67.6754C203.256 67.3374 204.422 67.2971 206.027 67.718C207.516 68.1085 208.825 68.7479 209.218 68.9831L211.274 65.5524C210.567 65.1281 208.907 64.3382 207.042 63.8489C205.293 63.39 202.721 63.0194 200.662 64.2197L202.676 67.6754ZM200.161 69.2711C200.977 68.7299 201.774 68.2012 202.676 67.6754L200.662 64.2197C199.645 64.8123 198.756 65.4027 197.949 65.9384L200.161 69.2711ZM195.4 71.9717C197.282 71.1883 198.755 70.2048 200.161 69.2711L197.949 65.9384C196.515 66.8903 195.341 67.6634 193.863 68.2789L195.4 71.9717ZM187.652 72.4315C188.844 71.9733 190.217 71.7318 191.438 71.684C192.75 71.6326 193.541 71.8164 193.738 71.9145L195.525 68.3361C194.401 67.7746 192.773 67.6286 191.281 67.6871C189.699 67.749 187.884 68.057 186.217 68.6978L187.652 72.4315ZM180.529 76.4912C183.198 74.0828 185.707 73.0349 187.522 72.4762L186.346 68.6531C184.121 69.3376 181.053 70.6303 177.849 73.5215L180.529 76.4912ZM99.9051 104.654C101.364 103.875 112.038 99.2646 127.082 93.6587C142.073 88.0726 161.255 81.5549 179.674 76.9466L178.703 73.0662C160.084 77.7246 140.749 84.2974 125.685 89.9104C110.674 95.5038 99.7542 100.201 98.0229 101.124L99.9051 104.654ZM45.2506 136.98C57.1481 127.247 83.5501 113.052 99.8776 104.668L98.0504 101.11C81.8312 109.439 55.0101 123.828 42.7178 133.884L45.2506 136.98ZM8.05794 187.949C12.7681 173.603 24.8545 153.902 45.2612 136.972L42.7072 133.893C21.7698 151.264 9.2216 171.582 4.25755 186.701L8.05794 187.949ZM6.16898 208.243C5.5053 209.03 5.00925 209.428 4.69942 209.601C4.40254 209.767 4.48988 209.618 4.76495 209.717C5.00854 209.805 4.95791 209.933 4.79519 209.578C4.63688 209.232 4.47304 208.633 4.38179 207.714C4.01138 203.986 5.00579 196.996 8.05279 187.965L4.2627 186.686C1.15213 195.905 -0.0528241 203.538 0.401387 208.109C0.516291 209.266 0.747611 210.347 1.15886 211.244C1.5657 212.132 2.25903 213.065 3.40639 213.479C4.58522 213.905 5.73613 213.603 6.64803 213.094C7.54698 212.593 8.40492 211.796 9.22583 210.823L6.16898 208.243ZM70.1229 164.623C78.1475 173.034 82.2921 187.638 83.7779 203.128L87.7596 202.746C86.2535 187.044 82.0078 171.286 73.017 161.862L70.1229 164.623ZM70.6521 161.465L70.6016 161.493L72.5382 164.993L72.5886 164.965L70.6521 161.465ZM87.7598 202.517C86.2397 186.996 81.982 171.218 73.0703 161.837L70.1704 164.592C78.1237 172.964 82.2792 187.595 83.7788 202.907L87.7598 202.517ZM87.7603 202.522L87.7597 202.516L83.7789 202.908L83.7794 202.913L87.7603 202.522ZM87.7576 202.497L87.7576 202.496L83.7821 202.938L83.7821 202.938L87.7576 202.497ZM141.144 244.694C122.462 245.129 109.897 241.53 101.659 234.558C93.445 227.608 89.1636 216.989 87.7605 202.524L83.7792 202.911C85.2342 217.911 89.7497 229.72 99.0749 237.612C108.376 245.483 122.092 249.139 141.237 248.693L141.144 244.694ZM143.652 244.67C142.828 244.667 141.993 244.675 141.145 244.694L141.235 248.693C142.049 248.675 142.851 248.667 143.64 248.67L143.652 244.67ZM141.318 248.909C142.174 248.854 143.038 248.768 143.909 248.652L143.383 244.687C142.597 244.791 141.823 244.868 141.062 244.917L141.318 248.909ZM175.095 252.371C166.494 247.222 155.566 244.442 141.125 244.914L141.255 248.912C155.099 248.46 165.23 251.127 173.041 255.803L175.095 252.371ZM141.242 248.913C155.059 248.55 165.224 251.188 173.051 255.809L175.085 252.365C166.474 247.281 155.529 244.536 141.136 244.915L141.242 248.913ZM83.7781 203.13C85.2338 218.138 89.8073 229.945 99.1583 237.833C108.485 245.701 122.197 249.358 141.236 248.914L141.142 244.915C122.574 245.349 110.005 241.75 101.738 234.776C93.4947 227.822 89.1617 217.202 87.7594 202.744L83.7781 203.13ZM292.241 147.732C290.448 153.02 289.057 159.279 288.958 166.408L292.957 166.463C293.05 159.83 294.343 153.988 296.029 149.017L292.241 147.732ZM299.775 148.877C297.699 148.386 296.366 147.674 295.456 146.874L292.813 149.876C294.33 151.211 296.307 152.166 298.854 152.769L299.775 148.877ZM303.97 164.188C302.45 162.563 301.044 161.025 300.328 159.104C299.662 157.319 299.528 154.994 301.117 151.69L297.512 149.957C295.508 154.125 295.491 157.582 296.58 160.502C297.619 163.288 299.607 165.379 301.048 166.92L303.97 164.188ZM307.216 169.272C307.049 168.146 306.484 167.191 305.918 166.426C305.348 165.657 304.628 164.891 303.97 164.188L301.048 166.92C301.75 167.669 302.297 168.259 302.704 168.807C303.113 169.36 303.233 169.684 303.259 169.858L307.216 169.272ZM297.876 172.13C299.264 172.248 300.747 172.377 302.112 172.328C303.479 172.279 304.946 172.048 306.243 171.294L304.231 167.836C303.752 168.115 303.043 168.292 301.968 168.331C300.892 168.369 299.666 168.268 298.216 168.144L297.876 172.13ZM295.469 171.951C296.268 171.993 297.064 172.061 297.876 172.13L298.216 168.144C297.414 168.076 296.554 168.002 295.68 167.956L295.469 171.951ZM291.765 173.776C293.165 172.551 294.47 171.898 295.47 171.951L295.679 167.956C293.029 167.817 290.685 169.406 289.131 170.766L291.765 173.776ZM288.92 166.809C288.803 168.22 288.641 170.174 288.457 172.079L292.439 172.464C292.626 170.527 292.79 168.546 292.906 167.138L288.92 166.809ZM288.964 166.27L288.92 166.808L292.906 167.138L292.951 166.6L288.964 166.27Z" fill="#ECECEC" mask="url(#path-1-inside-1_212_624)"/>
</g>
</svg>
