<svg width="309" height="276" viewBox="0 0 309 276" fill="none" xmlns="http://www.w3.org/2000/svg">
<path d="M154.355 258.235L57.4537 234.208L35.846 17.75H273.154L251.517 234.174L154.355 258.235Z" stroke="#ECECEC"/>
<mask id="path-2-inside-1_212_681" fill="white">
<path fill-rule="evenodd" clip-rule="evenodd" d="M115.006 115.635L154.394 115.635L154.5 115.635L215.73 115.635H223.774L223.04 122.794L216.03 192.976L215.585 197.478L154.5 212.606V212.606L154.365 212.641L93.2214 197.478L89.0403 155.63H102.849H119.004L121.128 176.89L154.365 184.903L154.394 184.895V184.894L154.481 184.873L154.5 184.868V184.869L187.689 176.873L191.145 142.295H154.5H154.394H87.7077L80.3786 68.8361L79.6641 61.6774H154.394H154.5H229.162L228.448 68.8361L227.086 82.3515L226.487 88.3372H226.391H154.5H154.394H112.283L115.006 115.635Z"/>
</mask>
<path d="M154.394 115.635L154.394 116.635L154.394 116.635L154.394 115.635ZM115.006 115.635L114.011 115.735L114.101 116.635L115.006 116.635L115.006 115.635ZM154.5 115.635L154.5 114.635L154.5 114.635L154.5 115.635ZM215.73 115.635L215.73 116.635H215.73V115.635ZM223.774 115.635L224.769 115.737L224.882 114.635H223.774V115.635ZM223.04 122.794L222.045 122.692L222.045 122.695L223.04 122.794ZM216.03 192.976L215.035 192.876L215.034 192.878L216.03 192.976ZM215.585 197.478L215.826 198.449L216.511 198.279L216.581 197.576L215.585 197.478ZM154.5 212.606L154.26 211.635L153.5 211.823V212.606H154.5ZM154.5 212.606L154.747 213.575L155.5 213.383V212.606H154.5ZM154.365 212.641L154.124 213.611L154.368 213.672L154.612 213.61L154.365 212.641ZM93.2214 197.478L92.2264 197.577L92.2965 198.279L92.9807 198.449L93.2214 197.478ZM89.0403 155.63V154.63H87.9354L88.0452 155.729L89.0403 155.63ZM119.004 155.63L119.999 155.53L119.909 154.63H119.004V155.63ZM121.128 176.89L120.133 176.99L120.204 177.696L120.894 177.862L121.128 176.89ZM154.365 184.903L154.13 185.875L154.372 185.933L154.612 185.872L154.365 184.903ZM154.394 184.895L154.641 185.864L155.394 185.672V184.895H154.394ZM154.394 184.894L154.16 183.922L153.394 184.106V184.894H154.394ZM154.481 184.873L154.716 185.845L154.729 185.842L154.481 184.873ZM154.5 184.868H155.5V183.581L154.253 183.899L154.5 184.868ZM154.5 184.869H153.5V186.138L154.734 185.841L154.5 184.869ZM187.689 176.873L187.923 177.845L188.613 177.679L188.684 176.972L187.689 176.873ZM191.145 142.295L192.141 142.395L192.25 141.295H191.145V142.295ZM87.7077 142.295L86.7127 142.395L86.8025 143.295H87.7077V142.295ZM80.3786 68.8361L81.3737 68.7368L81.3737 68.7368L80.3786 68.8361ZM79.6641 61.6774V60.6774H78.5593L78.669 61.7767L79.6641 61.6774ZM229.162 61.6774L230.157 61.7767L230.267 60.6774H229.162V61.6774ZM228.448 68.8361L229.443 68.9364L229.443 68.9354L228.448 68.8361ZM227.086 82.3515L226.091 82.2513L226.091 82.252L227.086 82.3515ZM226.487 88.3372V89.3372H227.392L227.482 88.4368L226.487 88.3372ZM112.283 88.3372V87.3372H111.178L111.288 88.4365L112.283 88.3372ZM154.394 114.635L115.006 114.635L115.006 116.635L154.394 116.635L154.394 114.635ZM154.5 114.635L154.394 114.635L154.394 116.635L154.5 116.635L154.5 114.635ZM215.73 114.635L154.5 114.635L154.5 116.635L215.73 116.635L215.73 114.635ZM223.774 114.635H215.73V116.635H223.774V114.635ZM224.035 122.896L224.769 115.737L222.779 115.533L222.045 122.692L224.035 122.896ZM217.025 193.075L224.035 122.894L222.045 122.695L215.035 192.876L217.025 193.075ZM216.581 197.576L217.025 193.074L215.034 192.878L214.59 197.38L216.581 197.576ZM154.74 213.576L215.826 198.449L215.345 196.507L154.26 211.635L154.74 213.576ZM155.5 212.606V212.606H153.5V212.606H155.5ZM154.612 213.61L154.747 213.575L154.253 211.637L154.118 211.672L154.612 213.61ZM92.9807 198.449L154.124 213.611L154.606 211.67L93.4621 196.507L92.9807 198.449ZM88.0452 155.729L92.2264 197.577L94.2165 197.379L90.0353 155.53L88.0452 155.729ZM102.849 154.63H89.0403V156.63H102.849V154.63ZM119.004 154.63H102.849V156.63H119.004V154.63ZM122.123 176.791L119.999 155.53L118.009 155.729L120.133 176.99L122.123 176.791ZM154.599 183.931L121.362 175.918L120.894 177.862L154.13 185.875L154.599 183.931ZM154.147 183.926L154.118 183.934L154.612 185.872L154.641 185.864L154.147 183.926ZM153.394 184.894V184.895H155.394V184.894H153.394ZM154.247 183.901L154.16 183.922L154.628 185.866L154.716 185.845L154.247 183.901ZM154.253 183.899L154.234 183.904L154.729 185.842L154.747 185.837L154.253 183.899ZM155.5 184.869V184.868H153.5V184.869H155.5ZM187.454 175.901L154.266 183.896L154.734 185.841L187.923 177.845L187.454 175.901ZM190.15 142.196L186.693 176.773L188.684 176.972L192.141 142.395L190.15 142.196ZM154.5 143.295H191.145V141.295H154.5V143.295ZM154.394 143.295H154.5V141.295H154.394V143.295ZM87.7077 143.295H154.394V141.295H87.7077V143.295ZM79.3836 68.9354L86.7127 142.395L88.7028 142.196L81.3737 68.7368L79.3836 68.9354ZM78.669 61.7767L79.3836 68.9354L81.3737 68.7368L80.6591 61.578L78.669 61.7767ZM154.394 60.6774H79.6641V62.6774H154.394V60.6774ZM154.5 60.6774H154.394V62.6774H154.5V60.6774ZM229.162 60.6774H154.5V62.6774H229.162V60.6774ZM229.443 68.9354L230.157 61.7767L228.167 61.578L227.453 68.7368L229.443 68.9354ZM228.081 82.4517L229.443 68.9364L227.453 68.7359L226.091 82.2513L228.081 82.4517ZM227.482 88.4368L228.081 82.451L226.091 82.252L225.492 88.2377L227.482 88.4368ZM226.391 89.3372H226.487V87.3372H226.391V89.3372ZM154.5 89.3372H226.391V87.3372H154.5V89.3372ZM154.394 89.3372H154.5V87.3372H154.394V89.3372ZM112.283 89.3372H154.394V87.3372H112.283V89.3372ZM116.001 115.536L113.278 88.238L111.288 88.4365L114.011 115.735L116.001 115.536Z" fill="#ECECEC" mask="url(#path-2-inside-1_212_681)"/>
</svg>
