<svg width="256" height="383" viewBox="0 0 256 383" fill="none" xmlns="http://www.w3.org/2000/svg">
<g clip-path="url(#clip0_212_617)">
<path d="M252.922 213.746H2.69159V200.078C2.69159 190.834 10.1848 183.341 19.4276 183.341H236.185C245.428 183.341 252.922 190.834 252.922 200.078V213.746Z" stroke="#ECECEC"/>
<path d="M235.919 378.053H19.6932C10.3033 378.053 2.69119 370.441 2.69119 361.051V214.746H252.921V361.051C252.921 370.441 245.31 378.053 235.919 378.053Z" stroke="#ECECEC"/>
<path d="M250.302 211.898H250.802V211.398V198.692C250.802 190.914 244.498 184.61 236.721 184.61H19.279C11.5018 184.61 5.198 190.914 5.198 198.692V211.398V211.898H5.698H250.302ZM250.802 217.096V216.596H250.302H5.698H5.198V217.096V362.867C5.198 370.644 11.5019 376.948 19.279 376.948H236.721C244.498 376.948 250.802 370.644 250.802 362.867V217.096ZM20.554 179.913H21.0103L21.0519 179.458L21.8979 170.222L20.9335 169.997L17.3415 179.307L17.0566 180.045L17.8459 179.985C18.3358 179.948 18.804 179.913 19.279 179.913H20.554ZM234.43 163.687L233.457 163.883L234.711 179.453L234.748 179.913H235.209H236.721C237.503 179.913 238.273 179.976 239.044 180.072L239.825 180.169L239.58 179.42L234.43 163.687ZM250.727 186.162L250.759 186.259L250.826 186.336C253.727 189.644 255.5 193.96 255.5 198.692V362.867C255.5 373.221 247.075 381.646 236.721 381.646H19.279C8.92512 381.646 0.5 373.221 0.5 362.867V198.692C0.5 193.675 2.48883 189.122 5.70876 185.747L5.77759 185.675L5.81349 185.582L25.0335 135.764L25.0586 135.699L25.0649 135.63L33.4003 44.574L41.8605 45.3479L34.3541 127.342L34.3196 127.718L34.6721 127.854L36.8655 128.7L33.4355 137.592L33.4104 137.657L33.4041 137.726L29.5921 179.367L29.5421 179.913H30.09H225.683H226.225L226.181 179.372L215.368 45.1257L223.835 44.4431L230.197 123.414L230.244 124.002L230.369 123.97L250.727 186.162ZM21.1565 194.897C23.2564 194.897 24.9585 196.599 24.9585 198.699C24.9585 200.798 23.2564 202.501 21.1565 202.501C19.0566 202.501 17.3545 200.798 17.3545 198.699C17.3545 196.599 19.0566 194.897 21.1565 194.897ZM35.8645 194.897C37.9644 194.897 39.6665 196.599 39.6665 198.699C39.6665 200.798 37.9644 202.501 35.8645 202.501C33.7646 202.501 32.0625 200.798 32.0625 198.699C32.0625 196.599 33.7646 194.897 35.8645 194.897ZM50.1091 194.897C52.209 194.897 53.9111 196.599 53.9111 198.699C53.9111 200.798 52.209 202.501 50.1091 202.501C48.0092 202.501 46.3071 200.798 46.3071 198.699C46.3071 196.599 48.0092 194.897 50.1091 194.897Z" stroke="#ECECEC"/>
<path d="M170.585 68.5907L169.689 69.052L170.598 69.4864L241.336 103.273V117.483L211.105 132.078L128.645 88.7336L128.415 88.6129L128.184 88.7312L43.6107 132.076L15.4884 117.493V102.734L81.9968 68.951L82.8417 68.5218L82.0106 68.0667L15.4884 31.638V19.5129L42.5603 4.93525L127.84 46.6933L128.061 46.8018L128.282 46.6918L212.163 4.92799L241.336 18.4733V32.1593L170.585 68.5907Z" stroke="#ECECEC"/>
<path d="M176.853 68.0064L177.753 67.5547L243.428 34.5787C243.924 34.3296 244.237 33.8215 244.237 33.2665V17.6635C244.237 17.1125 243.929 16.6082 243.438 16.3565L176.853 68.0064ZM176.853 68.0064L177.757 68.4503M176.853 68.0064L177.757 68.4503M177.757 68.4503L243.416 100.707L243.636 100.259M177.757 68.4503L243.636 100.259M243.636 100.259L243.416 100.707C243.919 100.954 244.237 101.465 244.237 102.026V118.316C244.237 118.877 243.915 119.391 243.409 119.636C243.408 119.637 243.408 119.637 243.408 119.637L212.007 134.839C211.594 135.039 211.111 135.034 210.702 134.827L129.173 93.3728L129.173 93.3726C128.474 93.0181 127.647 93.0151 126.947 93.3679L44.3891 134.823C44.3891 134.823 44.3891 134.823 44.389 134.823C43.9728 135.031 43.4828 135.031 43.0671 134.821L243.636 100.259ZM214.449 126.585V127.382L215.167 127.035L238.307 115.832L238.589 115.695V115.382V108.202V107.379L237.859 107.758L214.719 119.749L214.449 119.888V120.193V126.585ZM17.0993 107.6L16.3504 107.17V108.034V114.668V114.975L16.6247 115.114L38.9847 126.426L39.7104 126.793V125.98V120.87V120.58L39.4593 120.436L17.0993 107.6ZM131.605 80.5913L130.883 80.2348V81.0395V87.2815V87.5872L131.155 87.7265L208.074 127.132L208.802 127.504V126.687V119.045V118.734L208.524 118.596L131.605 80.5913ZM45.6353 119.709L45.3574 119.846V120.157V127.188V128.001L46.0831 127.634L124.962 87.7257L125.236 87.5869V87.2795V81.0475V80.2415L124.514 80.5996L45.6353 119.709ZM21.6609 17.2678L20.7612 17.725L21.67 18.1638L101.492 56.7018C104.289 58.0521 104.311 62.0279 101.531 63.4098L101.753 63.8575L101.531 63.4098L21.9418 102.972L21.1049 103.388L21.9155 103.853L41.6045 115.156L41.8402 115.291L42.0819 115.167L128.06 70.9955L212.539 114.282L212.769 114.399L212.997 114.28L232.965 103.933L233.837 103.482L232.959 103.042L155.921 64.4854C153.174 63.1105 153.17 59.1903 155.914 57.8092L155.689 57.3625L155.914 57.8091L233.755 18.6351L234.635 18.1924L233.758 17.7435L212.354 6.7805L212.123 6.66206L211.893 6.78318L128.057 50.9653L42.7915 6.76262L42.5637 6.6445L42.3349 6.76078L21.6609 17.2678ZM17.3444 30.7705V31.0809L17.6225 31.2186L84.5425 64.3536L84.7426 64.4527L84.9499 64.3698L92.4759 61.3628L93.5116 60.949L92.5136 60.4511L18.0676 23.3091L17.3444 22.9483V23.7565V30.7705ZM170.249 64.7523L170.475 64.8896L170.723 64.7654L238.314 30.8274L238.589 30.689V30.3805V23.3355V22.5241L237.865 22.8889L163.144 60.4939L162.227 60.955L163.155 61.3927L163.368 60.9405L163.155 61.3927L163.155 61.3929L163.156 61.3933L163.16 61.3951L163.175 61.4022L163.234 61.43L163.457 61.5353L164.255 61.9117C164.915 62.2236 165.797 62.64 166.681 63.0583C167.566 63.4766 168.454 63.8968 169.127 64.2162C169.463 64.376 169.746 64.5103 169.947 64.6066C170.048 64.6548 170.127 64.6931 170.183 64.7202C170.237 64.7465 170.253 64.7545 170.249 64.7523ZM212.806 0.666648L243.438 16.3564L126.95 42.4359C127.65 42.7858 128.473 42.7819 129.169 42.4283L211.472 0.664454C211.472 0.664433 211.472 0.664416 211.472 0.664395C211.891 0.451775 212.387 0.452591 212.806 0.666648ZM43.1972 0.653932L126.95 42.4357L41.8769 0.659262C42.2923 0.448726 42.7824 0.446921 43.1971 0.653891L43.1972 0.653932ZM11.506 16.0932L41.8766 0.65944L11.8272 100.649L77.4727 68.0544L78.3769 67.6054L77.4719 67.1582L11.5209 34.5742L11.3011 35.019L11.5209 34.5742C11.0194 34.3265 10.7024 33.8162 10.7024 33.2575V17.4025C10.7024 16.8498 11.0126 16.344 11.5059 16.0933C11.5059 16.0933 11.5059 16.0932 11.506 16.0932ZM43.0666 134.821L11.5304 118.866C11.028 118.611 10.7149 118.092 10.7253 117.529L10.7253 117.529L11.0123 101.938L11.0123 101.937C11.022 101.39 11.3363 100.894 11.8268 100.649L43.0666 134.821Z" stroke="#ECECEC"/>
</g>
<defs>
<clipPath id="clip0_212_617">
<rect width="256" height="383" fill="white"/>
</clipPath>
</defs>
</svg>
