<svg width="274" height="274" viewBox="0 0 274 274" fill="none" xmlns="http://www.w3.org/2000/svg">
<g clip-path="url(#clip0_212_691)">
<path d="M71.282 30.2865L71.282 30.2514L71.2771 30.2175L71.2771 30.2175L71.277 30.2167L71.2768 30.2156L71.2753 30.2037C71.2738 30.1922 71.2716 30.1736 71.2689 30.1482C71.2635 30.0973 71.2561 30.019 71.2492 29.9151C71.2353 29.7073 71.2231 29.3974 71.2313 28.9999C71.2477 28.2049 71.3458 27.0608 71.6755 25.6838C72.3338 22.9336 73.9182 19.2423 77.6419 15.5371C85.095 8.12146 101.198 0.577662 135.84 0.57766C172.028 0.57766 188.58 9.66668 196.108 18.6111C199.875 23.0864 201.409 27.5544 202.004 30.8971C202.302 32.5695 202.364 33.9606 202.353 34.9297C202.347 35.4142 202.323 35.7928 202.301 36.048C202.29 36.1755 202.279 36.2722 202.271 36.3357C202.267 36.3674 202.264 36.3909 202.262 36.4058L202.26 36.4217L202.26 36.4248L202.26 36.4251L202.259 36.4254C202.259 36.4291 202.255 36.4646 202.254 36.5006V96.6877C202.254 105.699 199.972 112.386 196.575 117.356C193.177 122.33 188.641 125.616 184.089 127.787C179.534 129.96 174.973 131.012 171.547 131.52C169.834 131.773 168.409 131.891 167.413 131.945C166.915 131.972 166.525 131.983 166.26 131.987C166.207 131.988 166.158 131.989 166.115 131.989C166.052 131.99 166 131.99 165.96 131.99C165.927 131.99 165.902 131.99 165.885 131.99L165.867 131.989L165.863 131.989L165.862 131.989H165.854H100.178C90.2458 131.989 82.8391 134.444 77.3247 138.154C71.813 141.862 68.2236 146.803 65.8885 151.729C63.5545 156.652 62.4689 161.569 61.9658 165.25C61.7141 167.092 61.6078 168.628 61.5644 169.705C61.5427 170.244 61.5368 170.669 61.5363 170.96C61.536 171.105 61.5371 171.217 61.5383 171.294C61.5389 171.332 61.5396 171.361 61.5401 171.381L61.5406 171.404L61.5407 171.405V203.515H38.9108H38.8947L38.8791 203.516L38.8787 203.516L38.8752 203.516L38.8578 203.517C38.8416 203.518 38.8162 203.519 38.7821 203.52C38.7138 203.523 38.6102 203.525 38.4736 203.526C38.2005 203.527 37.7957 203.52 37.278 203.486C36.2426 203.418 34.7568 203.245 32.9709 202.82C29.4 201.97 24.6299 200.116 19.8549 196.093C10.3175 188.057 0.654722 171.275 0.654724 136.217C0.654724 101.18 11.7147 85.0558 22.6368 77.6545C28.1116 73.9445 33.5868 72.4008 37.694 71.7848C39.7474 71.4769 41.4566 71.4011 42.6495 71.402C43.2459 71.4025 43.7128 71.4221 44.0287 71.4414C44.1867 71.4511 44.3068 71.4606 44.3865 71.4677C44.4004 71.4689 44.4131 71.47 44.4245 71.4711C44.4458 71.4731 44.4628 71.4748 44.4753 71.476L44.4963 71.4782L44.5008 71.4787L44.5013 71.4788L44.5016 71.4788L44.5295 71.482H44.5579H137.077H137.577V70.982V61.585V61.085H137.077H71.3582L71.282 30.2865ZM111.74 33.0835C111.74 26.1952 106.193 20.6237 99.3269 20.6237C92.4607 20.6237 86.9139 26.1952 86.9139 33.0835C86.9139 39.9718 92.4607 45.5433 99.3269 45.5433C106.193 45.5433 111.74 39.9718 111.74 33.0835Z" stroke="#ECECEC"/>
<path d="M202.368 242.887L202.368 242.852L202.292 212.054H136.573H136.073V211.554V202.157V201.657H136.573H229.092H229.12L229.148 201.66L229.149 201.66L229.149 201.66L229.154 201.661L229.175 201.663C229.194 201.665 229.224 201.668 229.263 201.671C229.304 201.675 229.355 201.679 229.417 201.684C229.476 201.688 229.544 201.693 229.621 201.697C229.937 201.717 230.404 201.736 231 201.737C232.193 201.738 233.903 201.662 235.956 201.354C240.063 200.738 245.538 199.194 251.013 195.484C261.935 188.083 272.995 171.958 272.995 136.922C272.995 101.864 263.332 85.0817 253.795 77.0463C249.02 73.0233 244.25 71.1689 240.679 70.3191C238.893 69.8942 237.407 69.7206 236.372 69.653C235.854 69.6193 235.449 69.612 235.176 69.6131C235.04 69.6136 234.936 69.6162 234.868 69.6186C234.834 69.6198 234.808 69.6209 234.792 69.6217L234.775 69.6227L234.771 69.6229L234.771 69.6229L234.755 69.6239H234.739H212.109L212.109 101.734L212.109 101.741L212.11 101.758C212.11 101.778 212.111 101.807 212.112 101.845C212.113 101.922 212.114 102.034 212.114 102.179C212.113 102.47 212.107 102.895 212.086 103.433C212.042 104.511 211.936 106.047 211.684 107.889C211.181 111.57 210.096 116.486 207.761 121.41C205.426 126.335 201.837 131.277 196.325 134.985C190.811 138.695 183.404 141.149 173.472 141.149H107.796H107.788L107.788 141.149L107.787 141.149L107.783 141.149L107.765 141.149C107.748 141.149 107.723 141.149 107.69 141.149C107.623 141.149 107.522 141.149 107.39 141.152C107.125 141.156 106.735 141.167 106.237 141.194C105.241 141.248 103.816 141.366 102.103 141.619C98.6765 142.127 94.1156 143.179 89.5612 145.351C85.0087 147.523 80.4731 150.809 77.0745 155.783C73.6783 160.753 71.3962 167.44 71.3962 176.451V236.638V236.676L71.3904 236.714L71.3904 236.714L71.3903 236.714L71.3899 236.717L71.3877 236.733C71.3856 236.748 71.3825 236.771 71.3786 236.803C71.3709 236.867 71.3602 236.963 71.349 237.091C71.3267 237.346 71.3026 237.725 71.297 238.209C71.2858 239.178 71.3484 240.569 71.6461 242.242C72.2412 245.584 73.7753 250.052 77.5421 254.528C85.0703 263.472 101.622 272.561 137.81 272.561C172.452 272.561 188.555 265.017 196.008 257.602C199.732 253.897 201.316 250.205 201.974 247.455C202.304 246.078 202.402 244.934 202.419 244.139C202.427 243.741 202.415 243.432 202.401 243.224C202.394 243.12 202.386 243.042 202.381 242.991C202.378 242.965 202.376 242.947 202.375 242.935L202.373 242.923L202.373 242.922L202.368 242.887ZM202.368 242.887L202.373 242.921L202.368 242.887ZM161.91 240.055C161.91 246.944 167.457 252.515 174.323 252.515C181.189 252.515 186.736 246.944 186.736 240.055C186.736 233.167 181.189 227.596 174.323 227.596C167.457 227.596 161.91 233.167 161.91 240.055Z" stroke="#ECECEC"/>
</g>
<defs>
<clipPath id="clip0_212_691">
<rect width="274" height="274" fill="white"/>
</clipPath>
</defs>
</svg>
