<svg width="293" height="293" viewBox="0 0 293 293" fill="none" xmlns="http://www.w3.org/2000/svg">
<mask id="path-1-inside-1_212_613" fill="white">
<path d="M239.07 160.894C231.019 160.904 223.075 162.745 215.84 166.277C213.575 162.518 211.826 158.472 210.64 154.246C209.958 150.934 209.8 147.535 210.173 144.174C210.955 140.476 211.971 136.831 213.212 133.26C213.167 132.793 212.654 130.586 207.499 130.513C202.344 130.44 197.903 131.493 197.427 132.857C196.532 135.349 195.813 137.901 195.275 140.493C191.009 151.019 185.757 161.117 179.591 170.654C176.136 164.99 174.715 158.318 175.562 151.737C176.345 148.039 177.36 144.394 178.602 140.823C178.556 140.356 178.043 138.149 172.888 138.076C167.733 138.003 163.293 139.056 162.816 140.42C162.34 141.785 161.736 144.998 160.665 148.057C159.593 151.115 147.086 179.06 143.808 186.266C142.123 189.928 140.667 192.913 139.642 194.927C139.593 195.058 139.532 195.184 139.459 195.303C138.543 197.033 138.058 197.976 138.058 197.976V198.022C137.353 199.286 136.602 200.458 136.227 200.458C135.572 197.842 135.603 195.101 136.318 192.501C138.15 182.805 142.636 167.733 142.59 167.211C142.59 166.928 143.433 164.309 139.688 162.954C138.819 162.54 137.844 162.407 136.896 162.571C135.948 162.735 135.075 163.188 134.395 163.869C134.066 163.869 133.837 164.666 133.837 164.666C133.837 164.666 137.911 147.718 126.063 147.718C121.449 148.646 117.068 150.487 113.176 153.134C109.284 155.78 105.961 159.178 103.402 163.128C100.215 164.858 93.4304 168.557 86.1695 172.54C83.4226 174.088 80.5475 175.635 77.8831 177.118C77.6999 176.935 77.5077 176.697 77.3245 176.514C62.9034 161.15 36.3961 150.309 37.5406 129.753C37.9618 122.263 40.5347 102.596 88.4402 78.7071C127.867 59.2776 159.246 64.6614 164.675 76.6012C172.449 93.6501 147.864 125.303 107.128 129.891C102.621 130.805 97.967 130.695 93.5087 129.568C89.0505 128.441 84.9026 126.326 81.3716 123.38C79.2199 121.036 78.8903 120.899 78.0937 121.366C76.7843 122.071 77.6267 124.177 78.0937 125.395C79.6477 128.207 81.7496 130.68 84.2753 132.666C86.801 134.652 89.6992 136.112 92.7986 136.959C108.824 140.422 125.533 138.766 140.567 132.225C165.289 122.675 184.517 96.1223 178.877 73.8818C173.209 51.3116 135.751 43.8676 100.298 56.4849C78.0914 63.9571 57.5729 75.7268 39.9121 91.123C20.3818 109.39 17.2962 125.257 18.5597 131.914C23.1378 155.519 55.6517 170.874 68.6627 182.273C68.0035 182.649 67.3992 182.978 66.8864 183.253C60.3763 186.485 35.5629 199.46 29.3458 213.176C22.3229 228.741 30.472 239.866 35.8559 241.368C43.9684 243.31 52.4848 242.67 60.2162 239.538C67.9476 236.406 74.5081 230.938 78.9818 223.898C82.7914 218.058 85.1331 211.384 85.8074 204.444C86.4818 197.505 85.4689 190.505 82.8549 184.041C82.8108 183.936 82.7488 183.84 82.6718 183.757L87.7718 180.763C91.0955 178.794 94.3735 176.972 97.1844 175.47C95.2783 180.968 94.1593 186.708 93.8607 192.519C93.2135 201.426 95.9394 210.251 101.497 217.241C102.343 217.969 103.324 218.522 104.385 218.868C105.446 219.214 106.565 219.345 107.678 219.256C113.171 219.256 115.689 214.677 118.445 209.239C121.815 202.591 124.855 194.863 124.855 194.863C124.855 194.863 121.064 215.749 131.365 215.749C135.11 215.749 138.9 210.878 140.594 208.424V208.469C140.594 208.469 140.686 208.332 140.878 208.003L141.482 207.023V206.931C142.984 204.313 146.354 198.361 151.362 188.481C157.826 175.745 164.053 159.822 164.053 159.822C164.653 163.322 165.482 166.778 166.534 170.169C168.042 174.279 169.825 178.284 171.872 182.154C170.37 184.26 169.436 185.432 169.436 185.432L169.482 185.478C168.264 187.071 166.955 188.802 165.499 190.487C161.168 195.249 157.149 200.286 153.468 205.567C152.921 206.454 152.733 207.516 152.942 208.537C153.152 209.558 153.742 210.46 154.594 211.061C156.522 212.064 158.719 212.426 160.866 212.095C164.102 211.913 167.285 211.185 170.279 209.944C173.172 208.925 175.902 207.491 178.382 205.686C180.939 203.915 182.997 201.515 184.358 198.719C185.72 195.922 186.339 192.822 186.156 189.717C185.868 185.806 184.869 181.98 183.207 178.428C183.674 177.769 184.123 177.118 184.563 176.459C189.768 168.689 194.46 160.587 198.608 152.204C199.209 155.704 200.038 159.16 201.09 162.551C202.333 166.103 203.865 169.548 205.668 172.852C199.679 177.459 194.962 183.516 191.961 190.45C189.012 198.974 191.302 202.811 195.623 203.699C197.988 203.862 200.353 203.378 202.463 202.298C205.566 201.278 208.489 199.777 211.125 197.848C213.904 196.208 216.232 193.902 217.899 191.139C219.566 188.375 220.52 185.241 220.675 182.017C220.467 178.799 219.74 175.636 218.523 172.65C226.426 169.563 234.994 168.579 243.391 169.794C265.678 172.412 270.082 186.321 269.24 192.181C268.844 194.258 268.009 196.227 266.79 197.954C265.571 199.682 263.996 201.129 262.171 202.197C260.624 203.177 260.111 203.507 260.248 204.212C260.431 205.246 261.164 205.192 262.491 205.008C265.85 203.964 268.814 201.927 270.991 199.164C273.168 196.402 274.457 193.044 274.688 189.534C275.393 175.8 262.281 160.738 239.097 160.875L239.07 160.894ZM67.1153 218.834C59.7171 226.892 49.4163 229.932 44.9663 227.359C40.1868 224.612 42.0638 212.709 51.1468 204.175C56.5348 199.325 62.3584 194.982 68.5437 191.201C69.6241 190.542 71.2173 189.608 73.1218 188.454L73.6346 188.17L74.7608 187.465C76.3835 192.902 76.5306 198.673 75.1871 204.185C73.8435 209.698 71.0577 214.754 67.1153 218.834ZM120.963 182.209C118.39 188.481 113.006 204.551 109.729 203.653C106.918 202.903 105.15 190.725 109.17 178.693C111.199 172.902 114.156 167.478 117.923 162.633C121.952 158.138 126.402 156.636 127.473 158.467C126.496 166.661 124.302 174.663 120.963 182.209ZM165.399 203.47C164.318 204.029 163.293 204.386 162.826 204.129C162.496 203.946 163.293 203.214 163.293 203.214C163.293 203.214 168.869 197.216 171.066 194.506C172.33 192.913 173.813 191.045 175.425 188.93V189.534C175.425 196.695 168.493 201.52 165.408 203.489L165.399 203.47ZM199.68 195.651C198.883 195.092 199.02 193.215 201.694 187.364C203.553 183.607 206.15 180.262 209.33 177.531C209.818 178.917 210.071 180.374 210.081 181.843C210.117 184.97 209.117 188.022 207.237 190.521C205.357 193.02 202.703 194.827 199.689 195.66L199.68 195.651Z"/>
</mask>
<path d="M239.07 160.894C231.019 160.904 223.075 162.745 215.84 166.277C213.575 162.518 211.826 158.472 210.64 154.246C209.958 150.934 209.8 147.535 210.173 144.174C210.955 140.476 211.971 136.831 213.212 133.26C213.167 132.793 212.654 130.586 207.499 130.513C202.344 130.44 197.903 131.493 197.427 132.857C196.532 135.349 195.813 137.901 195.275 140.493C191.009 151.019 185.757 161.117 179.591 170.654C176.136 164.99 174.715 158.318 175.562 151.737C176.345 148.039 177.36 144.394 178.602 140.823C178.556 140.356 178.043 138.149 172.888 138.076C167.733 138.003 163.293 139.056 162.816 140.42C162.34 141.785 161.736 144.998 160.665 148.057C159.593 151.115 147.086 179.06 143.808 186.266C142.123 189.928 140.667 192.913 139.642 194.927C139.593 195.058 139.532 195.184 139.459 195.303C138.543 197.033 138.058 197.976 138.058 197.976V198.022C137.353 199.286 136.602 200.458 136.227 200.458C135.572 197.842 135.603 195.101 136.318 192.501C138.15 182.805 142.636 167.733 142.59 167.211C142.59 166.928 143.433 164.309 139.688 162.954C138.819 162.54 137.844 162.407 136.896 162.571C135.948 162.735 135.075 163.188 134.395 163.869C134.066 163.869 133.837 164.666 133.837 164.666C133.837 164.666 137.911 147.718 126.063 147.718C121.449 148.646 117.068 150.487 113.176 153.134C109.284 155.78 105.961 159.178 103.402 163.128C100.215 164.858 93.4304 168.557 86.1695 172.54C83.4226 174.088 80.5475 175.635 77.8831 177.118C77.6999 176.935 77.5077 176.697 77.3245 176.514C62.9034 161.15 36.3961 150.309 37.5406 129.753C37.9618 122.263 40.5347 102.596 88.4402 78.7071C127.867 59.2776 159.246 64.6614 164.675 76.6012C172.449 93.6501 147.864 125.303 107.128 129.891C102.621 130.805 97.967 130.695 93.5087 129.568C89.0505 128.441 84.9026 126.326 81.3716 123.38C79.2199 121.036 78.8903 120.899 78.0937 121.366C76.7843 122.071 77.6267 124.177 78.0937 125.395C79.6477 128.207 81.7496 130.68 84.2753 132.666C86.801 134.652 89.6992 136.112 92.7986 136.959C108.824 140.422 125.533 138.766 140.567 132.225C165.289 122.675 184.517 96.1223 178.877 73.8818C173.209 51.3116 135.751 43.8676 100.298 56.4849C78.0914 63.9571 57.5729 75.7268 39.9121 91.123C20.3818 109.39 17.2962 125.257 18.5597 131.914C23.1378 155.519 55.6517 170.874 68.6627 182.273C68.0035 182.649 67.3992 182.978 66.8864 183.253C60.3763 186.485 35.5629 199.46 29.3458 213.176C22.3229 228.741 30.472 239.866 35.8559 241.368C43.9684 243.31 52.4848 242.67 60.2162 239.538C67.9476 236.406 74.5081 230.938 78.9818 223.898C82.7914 218.058 85.1331 211.384 85.8074 204.444C86.4818 197.505 85.4689 190.505 82.8549 184.041C82.8108 183.936 82.7488 183.84 82.6718 183.757L87.7718 180.763C91.0955 178.794 94.3735 176.972 97.1844 175.47C95.2783 180.968 94.1593 186.708 93.8607 192.519C93.2135 201.426 95.9394 210.251 101.497 217.241C102.343 217.969 103.324 218.522 104.385 218.868C105.446 219.214 106.565 219.345 107.678 219.256C113.171 219.256 115.689 214.677 118.445 209.239C121.815 202.591 124.855 194.863 124.855 194.863C124.855 194.863 121.064 215.749 131.365 215.749C135.11 215.749 138.9 210.878 140.594 208.424V208.469C140.594 208.469 140.686 208.332 140.878 208.003L141.482 207.023V206.931C142.984 204.313 146.354 198.361 151.362 188.481C157.826 175.745 164.053 159.822 164.053 159.822C164.653 163.322 165.482 166.778 166.534 170.169C168.042 174.279 169.825 178.284 171.872 182.154C170.37 184.26 169.436 185.432 169.436 185.432L169.482 185.478C168.264 187.071 166.955 188.802 165.499 190.487C161.168 195.249 157.149 200.286 153.468 205.567C152.921 206.454 152.733 207.516 152.942 208.537C153.152 209.558 153.742 210.46 154.594 211.061C156.522 212.064 158.719 212.426 160.866 212.095C164.102 211.913 167.285 211.185 170.279 209.944C173.172 208.925 175.902 207.491 178.382 205.686C180.939 203.915 182.997 201.515 184.358 198.719C185.72 195.922 186.339 192.822 186.156 189.717C185.868 185.806 184.869 181.98 183.207 178.428C183.674 177.769 184.123 177.118 184.563 176.459C189.768 168.689 194.46 160.587 198.608 152.204C199.209 155.704 200.038 159.16 201.09 162.551C202.333 166.103 203.865 169.548 205.668 172.852C199.679 177.459 194.962 183.516 191.961 190.45C189.012 198.974 191.302 202.811 195.623 203.699C197.988 203.862 200.353 203.378 202.463 202.298C205.566 201.278 208.489 199.777 211.125 197.848C213.904 196.208 216.232 193.902 217.899 191.139C219.566 188.375 220.52 185.241 220.675 182.017C220.467 178.799 219.74 175.636 218.523 172.65C226.426 169.563 234.994 168.579 243.391 169.794C265.678 172.412 270.082 186.321 269.24 192.181C268.844 194.258 268.009 196.227 266.79 197.954C265.571 199.682 263.996 201.129 262.171 202.197C260.624 203.177 260.111 203.507 260.248 204.212C260.431 205.246 261.164 205.192 262.491 205.008C265.85 203.964 268.814 201.927 270.991 199.164C273.168 196.402 274.457 193.044 274.688 189.534C275.393 175.8 262.281 160.738 239.097 160.875L239.07 160.894ZM67.1153 218.834C59.7171 226.892 49.4163 229.932 44.9663 227.359C40.1868 224.612 42.0638 212.709 51.1468 204.175C56.5348 199.325 62.3584 194.982 68.5437 191.201C69.6241 190.542 71.2173 189.608 73.1218 188.454L73.6346 188.17L74.7608 187.465C76.3835 192.902 76.5306 198.673 75.1871 204.185C73.8435 209.698 71.0577 214.754 67.1153 218.834ZM120.963 182.209C118.39 188.481 113.006 204.551 109.729 203.653C106.918 202.903 105.15 190.725 109.17 178.693C111.199 172.902 114.156 167.478 117.923 162.633C121.952 158.138 126.402 156.636 127.473 158.467C126.496 166.661 124.302 174.663 120.963 182.209ZM165.399 203.47C164.318 204.029 163.293 204.386 162.826 204.129C162.496 203.946 163.293 203.214 163.293 203.214C163.293 203.214 168.869 197.216 171.066 194.506C172.33 192.913 173.813 191.045 175.425 188.93V189.534C175.425 196.695 168.493 201.52 165.408 203.489L165.399 203.47ZM199.68 195.651C198.883 195.092 199.02 193.215 201.694 187.364C203.553 183.607 206.15 180.262 209.33 177.531C209.818 178.917 210.071 180.374 210.081 181.843C210.117 184.97 209.117 188.022 207.237 190.521C205.357 193.02 202.703 194.827 199.689 195.66L199.68 195.651Z" stroke="#ECECEC" stroke-width="2" mask="url(#path-1-inside-1_212_613)"/>
</svg>
