<svg width="256" height="154" viewBox="0 0 256 154" fill="none" xmlns="http://www.w3.org/2000/svg">
<path d="M65.1049 48.9546C69.4371 33.1467 76.6492 21.241 86.7123 13.1904C97.2701 4.74423 111.018 0.5 128 0.5C143.778 0.5 155.254 4.16429 164.341 9.3972C173.439 14.6368 180.164 21.4591 186.443 27.8325L186.496 27.8866C194.157 35.6636 201.204 42.8164 211.079 45.2851C219.709 47.4426 227.821 46.9063 235.397 43.6596C242.38 40.667 248.877 35.3846 254.895 27.8454C250.563 43.6533 243.351 55.559 233.288 63.6096C222.73 72.0558 208.982 76.3 192 76.3C176.222 76.3 164.746 72.6357 155.659 67.4028C146.561 62.1632 139.836 55.3409 133.557 48.9675L133.504 48.9134C125.843 41.1364 118.796 33.9836 108.921 31.5149C100.291 29.3574 92.1786 29.8937 84.603 33.1404C77.6204 36.133 71.1234 41.4154 65.1049 48.9546ZM1.10486 125.755C5.43712 109.947 12.6492 98.041 22.7123 89.9904C33.2701 81.5442 47.0179 77.3 64 77.3C79.7777 77.3 91.2535 80.9643 100.341 86.1972C109.439 91.4368 116.164 98.2591 122.443 104.632L122.496 104.687C130.157 112.464 137.204 119.616 147.079 122.085C155.709 124.243 163.821 123.706 171.397 120.46C178.38 117.467 184.877 112.185 190.895 104.645C186.563 120.453 179.351 132.359 169.288 140.41C158.73 148.856 144.982 153.1 128 153.1C112.222 153.1 100.746 149.436 91.6595 144.203C82.561 138.963 75.8362 132.141 69.5573 125.768L69.504 125.713C61.8425 117.936 54.796 110.784 44.9213 108.315C36.2912 106.157 28.1786 106.694 20.603 109.94C13.6204 112.933 7.1234 118.215 1.10486 125.755Z" fill="url(#paint0_linear_212_607)" stroke="#ECECEC"/>
<defs>
<linearGradient id="paint0_linear_212_607" x1="-1820.44" y1="7569.4" x2="60906.9" y2="29326.2" gradientUnits="userSpaceOnUse">
<stop stop-color="#FEFEFE" stop-opacity="0"/>
<stop offset="1" stop-color="#0ED7B5"/>
</linearGradient>
</defs>
</svg>
