<svg width="200" height="200" viewBox="0 0 200 200" fill="none" xmlns="http://www.w3.org/2000/svg">
<path fill-rule="evenodd" clip-rule="evenodd" d="M100 150C127.614 150 150 127.614 150 100C150 72.3857 127.614 50 100 50C72.3857 50 50 72.3857 50 100C50 127.614 72.3857 150 100 150ZM100 133.333C118.409 133.333 133.333 118.409 133.333 100C133.333 81.5905 118.409 66.6667 100 66.6667C81.5905 66.6667 66.6667 81.5905 66.6667 100C66.6667 118.409 81.5905 133.333 100 133.333Z" fill="#D3D3D3"/>
<path d="M150 41.6667C145.398 41.6667 141.667 45.3977 141.667 50C141.667 54.6023 145.398 58.3333 150 58.3333C154.603 58.3333 158.333 54.6023 158.333 50C158.333 45.3977 154.603 41.6667 150 41.6667Z" fill="#D3D3D3"/>
<path fill-rule="evenodd" clip-rule="evenodd" d="M13.783 35.6338C8.33334 46.3294 8.33334 60.3308 8.33334 88.3333V111.667C8.33334 139.669 8.33334 153.671 13.783 164.366C18.5767 173.774 26.2257 181.423 35.6338 186.217C46.3294 191.667 60.3308 191.667 88.3333 191.667H111.667C139.669 191.667 153.671 191.667 164.366 186.217C173.774 181.423 181.423 173.774 186.217 164.366C191.667 153.671 191.667 139.669 191.667 111.667V88.3333C191.667 60.3308 191.667 46.3294 186.217 35.6338C181.423 26.2257 173.774 18.5767 164.366 13.783C153.671 8.33334 139.669 8.33334 111.667 8.33334H88.3333C60.3308 8.33334 46.3294 8.33334 35.6338 13.783C26.2257 18.5767 18.5767 26.2257 13.783 35.6338ZM111.667 25H88.3333C74.057 25 64.3521 25.013 56.8507 25.6258C49.5437 26.2228 45.807 27.3049 43.2003 28.6331C36.9283 31.8289 31.8289 36.9283 28.6331 43.2003C27.3049 45.807 26.2228 49.5437 25.6258 56.8507C25.013 64.3521 25 74.057 25 88.3333V111.667C25 125.943 25.013 135.648 25.6258 143.149C26.2228 150.457 27.3049 154.193 28.6331 156.8C31.8289 163.072 36.9283 168.171 43.2003 171.367C45.807 172.695 49.5437 173.778 56.8507 174.374C64.3521 174.987 74.057 175 88.3333 175H111.667C125.943 175 135.648 174.987 143.149 174.374C150.457 173.778 154.193 172.695 156.8 171.367C163.072 168.171 168.171 163.072 171.367 156.8C172.695 154.193 173.778 150.457 174.374 143.149C174.987 135.648 175 125.943 175 111.667V88.3333C175 74.057 174.987 64.3521 174.374 56.8507C173.778 49.5437 172.695 45.807 171.367 43.2003C168.171 36.9283 163.072 31.8289 156.8 28.6331C154.193 27.3049 150.457 26.2228 143.149 25.6258C135.648 25.013 125.943 25 111.667 25Z" fill="#D3D3D3"/>
</svg>
