<svg width="200" height="200" viewBox="0 0 200 200" fill="none" xmlns="http://www.w3.org/2000/svg">
<path d="M156 33.3331H44.75C43.3161 33.2659 41.8829 33.4822 40.5327 33.9696C39.1824 34.457 37.9416 35.2059 36.8811 36.1734C35.8207 37.141 34.9614 38.3082 34.3527 39.6082C33.7439 40.9083 33.3975 42.3156 33.3333 43.7497V155.25C33.4173 158.251 34.6472 161.107 36.7703 163.229C38.8933 165.352 41.7487 166.582 44.75 166.667H156C158.917 166.537 161.668 165.268 163.662 163.134C165.657 161 166.735 158.17 166.667 155.25V43.7497C166.691 42.3539 166.429 40.968 165.898 39.6768C165.368 38.3857 164.578 37.2166 163.579 36.2412C162.581 35.2659 161.393 34.5049 160.09 34.0048C158.787 33.5047 157.395 33.2761 156 33.3331ZM75 144.5H55.5833V85.0833H75V144.5ZM65.75 76.0831C64.3951 76.1303 63.045 75.8968 61.7847 75.3973C60.5242 74.8978 59.3808 74.1431 58.4261 73.1805C57.4713 72.2179 56.7259 71.0683 56.2368 69.8039C55.7475 68.5395 55.5251 67.1876 55.5833 65.8331C55.5234 64.4639 55.7503 63.0974 56.2496 61.8211C56.7488 60.5448 57.5093 59.387 58.4823 58.4219C59.4553 57.4567 60.6192 56.7056 61.8994 56.2168C63.1798 55.7279 64.5481 55.5121 65.9167 55.5831C67.2716 55.5359 68.6217 55.7693 69.882 56.2688C71.1424 56.7683 72.2859 57.5231 73.2406 58.4856C74.1953 59.4482 74.9408 60.5978 75.4299 61.8622C75.9192 63.1266 76.1416 64.4786 76.0833 65.8331C76.1433 67.2022 75.9163 68.5687 75.4171 69.845C74.9178 71.1213 74.1573 72.2792 73.1844 73.2442C72.2114 74.2094 71.0475 74.9605 69.7673 75.4493C68.4869 75.9382 67.1186 76.1541 65.75 76.0831ZM144.5 144.5H125V112C125 104.25 122.25 98.9166 115.333 98.9166C113.185 98.935 111.094 99.6175 109.349 100.871C107.603 102.124 106.288 103.887 105.583 105.917C105.042 107.438 104.815 109.054 104.917 110.667V144.5H85.75V85.0833H104.917V93.4166C106.621 90.2858 109.157 87.6875 112.245 85.9075C115.333 84.1283 118.853 83.2373 122.417 83.3331C135 83.3331 144.5 91.6666 144.5 109.417V144.5Z" fill="#D3D3D3"/>
</svg>
